# This file uses centimeters as units for non-parametric coordinates.

mtllib WallBlock1x1.mtl
g default
v -0.391519 0.753945 0.435017
v -0.391519 0.793093 0.391519
v -0.435017 0.753945 0.391519
v 0.435017 0.753945 0.391519
v 0.391519 0.793093 0.391519
v 0.391519 0.753945 0.435017
v -0.435017 0.753945 -0.391519
v -0.391519 0.793093 -0.391519
v -0.391519 0.753945 -0.435017
v 0.391519 0.753945 -0.435017
v 0.391519 0.793093 -0.391519
v 0.435017 0.753945 -0.391519
v -0.435017 0.148111 0.391519
v -0.391519 0.148111 0.435017
v 0.435017 0.148111 0.391519
v 0.391519 0.148111 0.435017
v -0.435017 0.148111 -0.391519
v -0.391519 0.148111 -0.435017
v 0.391519 0.148111 -0.435017
v 0.435017 0.148111 -0.391519
v -0.448491 0.000000 0.498318
v -0.498318 0.000000 0.448491
v -0.448491 0.158157 0.498318
v -0.498318 0.158157 0.448491
v 0.498319 0.000000 0.448491
v 0.448492 0.000000 0.498318
v 0.498319 0.158157 0.448491
v 0.448492 0.158157 0.498318
v -0.448491 0.158157 -0.498318
v -0.498318 0.158157 -0.448491
v -0.448491 0.000000 -0.498318
v -0.498318 0.000000 -0.448491
v 0.498319 0.158157 -0.448491
v 0.448492 0.158157 -0.498318
v 0.498319 0.000000 -0.448491
v 0.448492 0.000000 -0.498318
v 0.391519 0.793093 0.391519
v -0.391519 0.793093 0.391519
v 0.391519 0.793093 -0.391519
v -0.391519 0.793093 -0.391519
v 0.326467 0.809279 0.308482
v 0.308483 0.809279 0.354346
v 0.344451 0.793093 0.372330
v -0.308465 0.811801 0.354346
v -0.326466 0.793093 0.308143
v -0.340824 0.793093 0.368704
v 0.308483 0.809279 -0.352876
v 0.326467 0.809279 -0.308482
v 0.344451 0.793093 -0.370860
v -0.308465 0.811801 -0.352876
v -0.340824 0.793093 -0.367233
v -0.326466 0.793093 -0.308143
v 0.308483 0.907425 0.354346
v 0.326467 0.907425 0.308482
v 0.308483 0.923611 0.336362
v -0.326466 0.907425 0.308482
v -0.308482 0.907425 0.354346
v -0.308482 0.923611 0.336362
v 0.326467 0.907425 -0.308482
v 0.308483 0.907425 -0.352876
v 0.308483 0.923611 -0.334892
v -0.308482 0.907425 -0.352876
v -0.326466 0.907425 -0.308482
v -0.308482 0.923611 -0.334892
v 0.248530 0.923611 0.232956
v 0.275506 0.923611 0.275506
v 0.266514 0.923611 0.214972
v 0.248530 1.005283 0.214972
v 0.248530 0.989097 0.232956
v 0.266514 0.989097 0.214972
v -0.266514 0.923611 0.214972
v -0.275506 0.923611 0.275506
v -0.248530 0.923611 0.232956
v -0.266514 0.989097 0.214972
v -0.248530 0.989097 0.232956
v -0.248530 1.005283 0.214972
v 0.266514 0.923611 -0.219745
v 0.275506 0.923611 -0.275506
v 0.248530 0.923611 -0.237729
v 0.248530 1.005283 -0.219745
v 0.266514 0.989097 -0.219745
v 0.248530 0.989097 -0.237729
v -0.248530 0.923611 -0.237729
v -0.275506 0.923611 -0.275506
v -0.266514 0.923611 -0.219745
v -0.248530 1.005283 -0.219745
v -0.248530 0.989097 -0.237729
v -0.266514 0.989097 -0.219745
vt 0.012635 0.010108
vt 0.028098 0.010108
vt 0.012635 0.162399
vt 0.028098 0.162399
vt 0.253915 0.862466
vt 0.253915 0.877684
vt 0.014752 0.862466
vt 0.014752 0.877684
vt 0.160772 0.405157
vt 0.160772 0.414787
vt 0.000000 0.405157
vt 0.014752 0.414787
vt 0.649534 0.010108
vt 0.664997 0.010108
vt 0.649534 0.162399
vt 0.664997 0.162399
vt 0.000000 0.862466
vt 0.014752 0.657512
vt 0.000000 0.657512
vt 0.224934 0.010108
vt 0.240398 0.010108
vt 0.224934 0.162399
vt 0.240398 0.162399
vt 0.000000 0.414787
vt 0.000000 0.657512
vt 0.437234 0.010108
vt 0.452697 0.010108
vt 0.437234 0.162399
vt 0.452697 0.162399
vt 0.955056 0.924948
vt 0.972770 0.924948
vt 0.955056 0.964705
vt 0.972770 0.964705
vt 0.225479 0.924948
vt 0.243192 0.924948
vt 0.225479 0.964705
vt 0.243192 0.964705
vt 0.729577 0.964705
vt 0.711864 0.964705
vt 0.729577 0.924948
vt 0.711864 0.924948
vt 0.486385 0.964705
vt 0.468671 0.964705
vt 0.486385 0.924948
vt 0.468671 0.924948
vt 0.000000 0.964705
vt 0.000000 0.924948
vt 0.861833 0.162399
vt 0.861833 0.010108
vt 0.174309 0.414787
vt 0.266494 0.667194
vt 0.274659 0.655008
vt 0.281980 0.682287
vt 0.290767 0.668975
vt 0.053929 0.658598
vt 0.064667 0.670346
vt 0.037805 0.672918
vt 0.050232 0.686440
vt 0.274659 0.458260
vt 0.260778 0.449650
vt 0.290767 0.443606
vt 0.274853 0.433528
vt 0.064200 0.449650
vt 0.053929 0.461996
vt 0.049719 0.433528
vt 0.037805 0.447753
vt 0.261662 0.670346
vt 0.275932 0.686440
vt 0.341484 0.355182
vt 0.341484 0.367450
vt 0.315708 0.355182
vt 0.315708 0.367450
vt 0.341484 0.852102
vt 0.341484 0.864333
vt 0.315708 0.852102
vt 0.315708 0.864333
vt 0.341484 0.521095
vt 0.341484 0.533023
vt 0.315708 0.521095
vt 0.315708 0.533023
vt 0.341484 0.698536
vt 0.315708 0.698536
vt 0.341484 0.686666
vt 0.315708 0.686666
vt 0.383219 0.484183
vt 0.383219 0.490577
vt 0.366758 0.484183
vt 0.366758 0.490577
vt 0.164644 0.727628
vt 0.170635 0.727628
vt 0.164644 0.837052
vt 0.170635 0.837052
vt 0.164644 0.721638
vt 0.039555 0.721638
vt 0.039555 0.727628
vt 0.383219 0.846865
vt 0.383219 0.853258
vt 0.366758 0.846865
vt 0.366758 0.853258
vt 0.033563 0.727628
vt 0.033563 0.837052
vt 0.039555 0.837052
vt 0.383219 0.599853
vt 0.383219 0.606247
vt 0.366758 0.599853
vt 0.366758 0.606247
vt 0.164644 0.843042
vt 0.039555 0.843042
vt 0.383219 0.731195
vt 0.383219 0.737588
vt 0.366758 0.731195
vt 0.366758 0.737588
vt 0.366758 0.359235
vt 0.383219 0.359235
vt 0.315708 0.201539
vt 0.341484 0.201539
vt 0.023234 0.187175
vt 0.009895 0.181172
vt 0.215934 0.181172
vt 0.203549 0.186221
vt 0.027012 0.203110
vt 0.215934 0.387211
vt 0.203549 0.381775
vt 0.194085 0.190953
vt 0.031749 0.190953
vt 0.027012 0.365272
vt 0.023234 0.380821
vt 0.009895 0.387211
vt 0.198817 0.203021
vt 0.198817 0.365362
vt 0.031749 0.377043
vt 0.194085 0.377043
vt 0.249834 0.470171
vt 0.249834 0.482193
vt 0.245591 0.474885
vt 0.245591 0.650843
vt 0.249834 0.643920
vt 0.249834 0.655557
vt 0.079621 0.482193
vt 0.079621 0.470171
vt 0.083864 0.474885
vt 0.083864 0.650843
vt 0.079621 0.643920
vt 0.079621 0.655557
vt 0.092508 0.490838
vt 0.236947 0.490838
vt 0.083864 0.470171
vt 0.245591 0.470171
vt 0.229876 0.501991
vt 0.099580 0.501991
vt 0.094866 0.506706
vt 0.094866 0.620659
vt 0.234590 0.506706
vt 0.234590 0.620659
vt 0.092508 0.635276
vt 0.236947 0.635276
vt 0.099580 0.625374
vt 0.229876 0.625374
vt 0.245591 0.655557
vt 0.083864 0.655557
vn -0.707107 0.000000 0.707106
vn -0.707106 0.000000 0.707107
vn -0.707107 0.000000 0.707106
vn -0.707106 0.000000 0.707107
vn 0.000000 0.743288 0.668972
vn 0.000000 0.743286 0.668973
vn 0.000000 0.743288 0.668972
vn 0.000000 0.743286 0.668973
vn -0.668972 0.743287 0.000000
vn -0.668973 0.743287 0.000000
vn -0.668972 0.743287 0.000000
vn -0.668973 0.743287 0.000000
vn 0.707106 0.000000 0.707107
vn 0.707107 0.000000 0.707107
vn 0.707106 0.000000 0.707107
vn 0.707107 0.000000 0.707107
vn 0.668972 0.743287 0.000000
vn 0.668972 0.743287 0.000000
vn 0.668972 0.743287 0.000000
vn 0.668972 0.743287 0.000000
vn -0.707107 0.000000 -0.707106
vn -0.707107 0.000000 -0.707107
vn -0.707107 0.000000 -0.707106
vn -0.707107 0.000000 -0.707107
vn 0.000000 0.743286 -0.668973
vn 0.000000 0.743288 -0.668972
vn 0.000000 0.743286 -0.668973
vn 0.000000 0.743288 -0.668972
vn 0.707107 0.000000 -0.707107
vn 0.707107 0.000000 -0.707107
vn 0.707107 0.000000 -0.707107
vn 0.707107 0.000000 -0.707107
vn -0.707108 0.000000 0.707106
vn -0.707108 0.000000 0.707106
vn -0.707108 0.000000 0.707106
vn -0.707108 0.000000 0.707106
vn 0.707108 0.000000 0.707106
vn 0.707107 0.000000 0.707106
vn 0.707108 0.000000 0.707106
vn 0.707108 0.000000 0.707106
vn -0.707107 0.000000 -0.707107
vn -0.707107 0.000000 -0.707107
vn -0.707106 0.000000 -0.707107
vn -0.707107 0.000000 -0.707107
vn 0.707107 0.000000 -0.707107
vn 0.707106 0.000000 -0.707107
vn 0.707107 0.000000 -0.707107
vn 0.707106 0.000000 -0.707107
vn 0.000000 0.000000 1.000000
vn 0.000000 0.000000 1.000000
vn 0.000000 0.000000 1.000000
vn 0.000000 0.000000 1.000000
vn 0.000000 0.000000 -1.000000
vn 0.000000 0.000000 -1.000000
vn 0.000000 0.000000 -1.000000
vn 0.000000 0.000000 -1.000000
vn 1.000000 0.000000 0.000000
vn 1.000000 0.000000 0.000000
vn 1.000000 0.000000 0.000000
vn 1.000000 0.000000 0.000000
vn -1.000000 0.000000 0.000000
vn -1.000000 0.000000 0.000000
vn -1.000000 0.000000 0.000000
vn -1.000000 0.000000 0.000000
vn -1.000000 0.000000 0.000000
vn -1.000000 0.000000 0.000000
vn -1.000000 0.000000 0.000000
vn -1.000000 0.000000 0.000000
vn 0.000000 0.000000 -1.000000
vn 0.000000 0.000000 -1.000000
vn 0.000000 0.000000 -1.000000
vn 0.000000 0.000000 -1.000000
vn 1.000000 0.000000 0.000000
vn 1.000000 0.000000 0.000000
vn 1.000000 0.000000 0.000000
vn 1.000000 0.000000 0.000000
vn 0.000000 0.000000 1.000000
vn 0.000000 0.000000 1.000000
vn 0.000000 0.000000 1.000000
vn 0.000000 0.000000 1.000000
vn -0.556026 0.617794 0.556027
vn -0.556026 0.617794 0.556026
vn -0.556026 0.617794 0.556027
vn 0.556026 0.617794 0.556026
vn 0.556026 0.617794 0.556026
vn 0.556026 0.617794 0.556026
vn -0.556026 0.617794 -0.556026
vn -0.556026 0.617794 -0.556026
vn -0.556026 0.617794 -0.556026
vn 0.556026 0.617794 -0.556026
vn 0.556026 0.617794 -0.556026
vn 0.556026 0.617794 -0.556026
vn 0.082944 0.993097 -0.082944
vn 0.082944 0.993096 -0.082944
vn 0.082944 0.993096 -0.082944
vn 0.082944 0.993096 -0.082944
vn -0.082944 0.993097 -0.082944
vn -0.082944 0.993097 -0.082944
vn -0.082944 0.993097 -0.082944
vn -0.082944 0.993096 -0.082944
vn 0.082944 0.993097 0.082944
vn 0.082944 0.993096 0.082944
vn 0.082944 0.993096 0.082944
vn 0.082944 0.993096 0.082944
vn -0.082944 0.993096 0.082944
vn -0.082944 0.993096 0.082944
vn -0.082944 0.993097 0.082944
vn -0.082944 0.993096 0.082944
vn 0.000000 0.987642 -0.156729
vn 0.000000 0.987642 -0.156729
vn 0.000000 0.987642 -0.156728
vn 0.000000 0.987642 -0.156728
vn 0.000000 0.987642 0.156729
vn 0.000000 0.987642 0.156729
vn 0.000000 0.987642 0.156728
vn 0.000000 0.987642 0.156728
vn -0.156729 0.987642 0.000000
vn -0.156729 0.987642 0.000000
vn -0.156729 0.987642 0.000000
vn -0.156729 0.987642 0.000000
vn 0.156729 0.987642 0.000000
vn 0.156729 0.987642 0.000000
vn 0.156729 0.987642 0.000000
vn 0.156729 0.987642 0.000000
vn 0.000000 1.000000 0.000003
vn 0.000000 1.000000 0.000000
vn 0.000000 1.000000 0.000003
vn 0.000000 1.000000 0.000000
vn 0.000000 1.000000 0.000000
vn 0.000000 1.000000 0.000000
vn 0.000000 1.000000 0.000000
vn 0.000000 1.000000 0.000000
vn 0.000000 1.000000 0.000000
vn 0.000000 1.000000 0.000000
vn 0.000000 1.000000 -0.000003
vn 0.000000 1.000000 -0.000003
vn 0.000000 1.000000 0.000000
vn 0.000000 1.000000 0.000000
vn 0.000000 1.000000 0.000000
vn 0.000000 1.000000 0.000000
vn 0.000000 1.000000 0.000000
vn 0.000000 1.000000 0.000000
vn 0.000000 1.000000 0.000000
vn 0.000000 1.000000 0.000000
vn 0.000000 1.000000 0.000000
vn 0.000000 1.000000 0.000000
vn 0.930986 0.000000 0.365056
vn 0.930986 0.000000 0.365056
vn 0.930986 0.000000 0.365055
vn 0.930986 0.000000 0.365056
vn -0.003561 0.739738 0.672886
vn -0.003485 0.738195 0.674579
vn 0.002084 0.615488 0.788143
vn 0.002477 0.606125 0.795365
vn 0.668971 0.743288 0.000000
vn 0.668970 0.743290 0.000000
vn 0.668971 0.743288 0.000000
vn 0.668970 0.743290 0.000000
vn -0.931630 -0.001079 0.363406
vn -0.931493 -0.000884 0.363759
vn -0.931208 -0.000480 0.364488
vn -0.930986 -0.000166 0.365056
vn 0.926837 0.000000 -0.375465
vn 0.926836 0.000000 -0.375466
vn 0.926837 0.000000 -0.375465
vn 0.926836 0.000000 -0.375466
vn -0.003561 0.739737 -0.672887
vn 0.002084 0.615488 -0.788144
vn -0.003485 0.738194 -0.674580
vn 0.002477 0.606125 -0.795366
vn -0.927542 -0.001109 -0.373718
vn -0.927074 -0.000483 -0.374878
vn -0.927396 -0.000914 -0.374081
vn -0.926836 -0.000165 -0.375467
vn 0.000000 0.743284 0.668976
vn 0.000000 0.743292 0.668968
vn 0.000000 0.743284 0.668976
vn 0.000000 0.743291 0.668968
vn 0.668974 0.743286 0.000000
vn 0.668974 0.743286 0.000000
vn 0.668973 0.743287 0.000000
vn 0.668973 0.743287 0.000000
vn -0.668973 0.743287 0.000000
vn -0.668973 0.743287 0.000000
vn -0.668973 0.743287 0.000000
vn -0.668973 0.743287 0.000000
vn 0.000000 0.743291 -0.668968
vn 0.000000 0.743284 -0.668976
vn 0.000000 0.743292 -0.668968
vn 0.000000 0.743284 -0.668976
vn 0.707105 0.000000 0.707109
vn 0.707103 0.000000 0.707111
vn 0.707105 0.000000 0.707108
vn 0.707103 0.000000 0.707110
vn 0.668973 0.743286 0.000000
vn 0.668974 0.743286 0.000000
vn 0.668973 0.743286 0.000000
vn 0.668974 0.743286 0.000000
vn 0.000000 0.743283 0.668977
vn 0.000000 0.743283 0.668977
vn 0.000000 0.743283 0.668977
vn 0.000000 0.743283 0.668977
vn -0.707104 0.000000 0.707110
vn -0.707104 0.000000 0.707110
vn -0.707104 0.000000 0.707110
vn -0.707104 0.000000 0.707110
vn -0.668974 0.743286 0.000000
vn -0.668975 0.743285 0.000000
vn -0.668974 0.743286 0.000000
vn -0.668975 0.743285 0.000000
vn 0.707105 0.000000 -0.707108
vn 0.707106 -0.000001 -0.707108
vn 0.707105 0.000000 -0.707108
vn 0.707106 -0.000001 -0.707108
vn 0.000000 0.743283 -0.668977
vn 0.000000 0.743283 -0.668977
vn 0.000000 0.743283 -0.668977
vn 0.000000 0.743283 -0.668977
vn -0.707105 -0.000001 -0.707109
vn -0.707107 0.000000 -0.707107
vn -0.707104 -0.000001 -0.707110
vn -0.707106 0.000000 -0.707107
vn 0.000000 1.000000 0.000000
vn 0.000000 1.000000 0.000000
vn 0.000000 1.000000 0.000000
vn 0.000000 1.000000 0.000000
vn -1.000000 0.000000 0.000000
vn -1.000000 0.000000 0.000000
vn -1.000000 0.000000 0.000000
vn -1.000000 0.000000 0.000000
vn 0.000000 1.000000 -0.000001
vn 0.000000 1.000000 -0.000002
vn 0.000000 1.000000 0.000001
vn 0.000000 1.000000 0.000002
vn 0.000000 1.000000 -0.000001
vn 0.000000 1.000000 0.000001
vn 0.000000 1.000000 0.000003
vn 0.000000 1.000000 -0.000005
vn 0.000000 1.000000 0.000002
vn 0.000000 1.000000 0.000001
vn 0.000000 1.000000 0.000001
vn 0.000000 1.000000 0.000000
vn 0.000000 1.000000 0.000001
vn 0.000000 1.000000 0.000000
vn 0.000000 1.000000 0.000001
vn 0.000000 1.000000 0.000001
vn 0.000000 1.000000 0.000001
vn 0.000000 1.000000 0.000000
vn 0.000000 1.000000 0.000001
vn 0.000000 1.000000 0.000001
vn 0.000000 1.000000 0.000001
vn 0.000000 1.000000 0.000000
vn 0.000000 1.000000 0.000001
vn 0.000000 1.000000 0.000001
vn 0.000000 1.000000 -0.000003
vn 0.000000 1.000000 0.000005
vn 0.000000 1.000000 -0.000002
vn 0.000000 1.000000 -0.000001
vn 0.000000 1.000000 0.000000
vn 0.000000 1.000000 0.000000
vn 0.000000 1.000000 -0.000001
vn 0.000000 1.000000 0.000000
vn 0.000000 1.000000 0.000000
vn 0.000000 1.000000 0.000000
vn 0.000000 1.000000 0.000000
vn 0.000000 1.000000 0.000001
vn 0.000000 0.000000 1.000000
vn 0.000000 0.000000 1.000000
vn 0.000000 0.000000 1.000000
vn 0.000000 0.000000 1.000000
vn 1.000000 0.000000 0.000000
vn 1.000000 0.000000 0.000000
vn 1.000000 0.000000 0.000000
vn 1.000000 0.000000 0.000000
vn 0.000000 0.000000 -1.000000
vn 0.000000 0.000000 -1.000000
vn 0.000000 0.000000 -1.000000
vn 0.000000 0.000000 -1.000000
vn -1.000000 0.000000 0.000000
vn -1.000000 0.000000 0.000000
vn -1.000000 0.000000 0.000000
vn -1.000000 0.000000 0.000000
vn 0.000000 0.000000 1.000000
vn 0.000000 0.000000 1.000000
vn 0.000000 0.000000 1.000000
vn 0.000000 0.000000 1.000000
vn 1.000000 0.000000 0.000000
vn 1.000000 0.000000 0.000000
vn 1.000000 0.000000 0.000000
vn 1.000000 0.000000 0.000000
vn 0.000000 0.000000 -1.000000
vn 0.000000 0.000000 -1.000000
vn 0.000000 0.000000 -1.000000
vn 0.000000 0.000000 -1.000000
vn 0.348833 0.927149 0.136784
vn 0.348833 0.927149 0.136784
vn 0.348833 0.927149 0.136784
vn -0.538246 0.833072 -0.127604
vn -0.538246 0.833072 -0.127604
vn -0.538246 0.833072 -0.127604
vn 0.346995 0.927273 -0.140571
vn 0.346995 0.927273 -0.140571
vn 0.346995 0.927273 -0.140571
vn -0.539118 0.831981 0.130991
vn -0.539118 0.831981 0.130991
vn -0.539118 0.831981 0.130991
vn 0.862720 0.375868 0.338287
vn 0.862720 0.375868 0.338287
vn 0.862720 0.375868 0.338287
vn -0.862720 0.375868 0.338287
vn -0.862720 0.375867 0.338287
vn -0.862720 0.375868 0.338287
vn 0.855387 0.385016 -0.346520
vn 0.855387 0.385016 -0.346520
vn 0.855387 0.385016 -0.346520
vn -0.855387 0.385016 -0.346520
vn -0.855387 0.385016 -0.346520
vn -0.855387 0.385016 -0.346520
vn 0.000000 1.000000 -0.000005
vn 0.000000 1.000000 0.000001
vn 0.000000 1.000000 0.000000
vn 0.556024 0.617788 0.556035
vn 0.556024 0.617788 0.556035
vn 0.556024 0.617788 0.556035
vn 0.000000 1.000000 0.000000
vn 0.000000 1.000000 -0.000001
vn 0.000000 1.000000 0.000003
vn -0.556026 0.617791 0.556030
vn -0.556026 0.617791 0.556030
vn -0.556026 0.617791 0.556030
vn 0.000000 1.000000 0.000000
vn 0.000000 1.000000 0.000001
vn 0.000000 1.000000 -0.000003
vn 0.556024 0.617788 -0.556035
vn 0.556024 0.617788 -0.556035
vn 0.556024 0.617788 -0.556035
vn 0.000000 1.000000 0.000005
vn 0.000000 1.000000 0.000001
vn 0.000000 1.000000 0.000000
vn -0.556026 0.617791 -0.556030
vn -0.556026 0.617791 -0.556030
vn -0.556026 0.617791 -0.556030
s 1
g WallBlock1x1:wallBlock1x1
usemtl WallBlock1x1:wallBlock1x1SG
f 14/3/1 1/1/2 13/4/3
f 13/4/3 1/1/2 3/2/4
s 2
f 5/7/5 2/5/6 6/8/7
f 6/8/7 2/5/6 1/6/8
s 3
f 7/11/9 3/9/10 8/12/11
f 8/12/11 3/9/10 2/10/12
s 4
f 15/15/13 4/13/14 16/16/15
f 16/16/15 4/13/14 6/14/16
s 5
f 11/18/17 5/7/18 12/19/19
f 12/19/19 5/7/18 4/17/20
s 6
f 17/22/21 7/20/22 18/23/23
f 18/23/23 7/20/22 9/21/24
s 7
f 10/25/25 9/24/26 11/18/27
f 11/18/27 9/24/26 8/12/28
s 8
f 19/28/29 10/26/30 20/29/31
f 20/29/31 10/26/30 12/27/32
s 9
f 24/32/33 22/30/34 23/33/35
f 23/33/35 22/30/34 21/31/36
s 10
f 28/36/37 26/34/38 27/37/39
f 27/37/39 26/34/38 25/35/40
s 11
f 32/40/41 30/38/42 31/41/43
f 31/41/43 30/38/42 29/39/44
s 12
f 36/44/45 34/42/46 35/45/47
f 35/45/47 34/42/46 33/43/48
s 13
f 28/36/49 23/46/50 26/34/51
f 26/34/51 23/46/50 21/47/52
s 14
f 31/41/53 29/39/54 36/44/55
f 36/44/55 29/39/54 34/42/56
s 15
f 33/43/57 27/37/58 35/45/59
f 35/45/59 27/37/58 25/35/60
s 16
f 24/32/61 30/38/62 22/30/63
f 22/30/63 30/38/62 32/40/64
s 17
f 7/20/65 17/22/66 3/2/67
f 3/2/67 17/22/66 13/4/68
s 18
f 18/23/69 9/21/70 19/28/71
f 19/28/71 9/21/70 10/26/72
s 19
f 4/13/73 15/15/74 12/27/75
f 12/27/75 15/15/74 20/29/76
s 20
f 1/49/77 14/48/78 6/14/79
f 6/14/79 14/48/78 16/16/80
s off
f 1/50/81 2/10/82 3/9/83
f 4/17/84 5/7/85 6/8/86
f 7/11/87 8/12/88 9/24/89
f 10/25/90 11/18/91 12/19/92
s 21
f 23/53/93 14/51/94 24/54/95
f 24/54/95 14/51/94 13/52/96
s 22
f 27/57/97 15/55/98 28/58/99
f 28/58/99 15/55/98 16/56/100
s 23
f 30/61/101 17/59/102 29/62/103
f 29/62/103 17/59/102 18/60/104
s 24
f 34/65/105 19/63/106 33/66/107
f 33/66/107 19/63/106 20/64/108
s 25
f 28/58/109 16/56/110 23/68/111
f 23/68/111 16/56/110 14/67/112
s 26
f 29/62/113 18/60/114 34/65/115
f 34/65/115 18/60/114 19/63/116
s 27
f 33/66/117 20/64/118 27/57/119
f 27/57/119 20/64/118 15/55/120
s 28
f 24/54/121 13/52/122 30/61/123
f 30/61/123 13/52/122 17/59/124
s 29
f 38/118/125 37/119/126 46/117/127
f 46/117/127 37/119/126 43/120/128
s 30
f 39/122/129 49/123/130 37/119/131
f 37/119/131 49/123/130 43/120/132
s 31
f 40/128/133 51/127/134 39/122/135
f 39/122/135 51/127/134 49/123/136
s off
f 40/128/137 38/118/138 51/127/139
s 32
f 52/126/140 51/127/141 45/121/142
f 45/121/142 51/127/141 38/118/143
s off
f 38/118/144 46/117/145 45/121/146
s 33
f 53/71/147 42/69/148 54/72/149
f 54/72/149 42/69/148 41/70/150
s 34
f 43/120/151 42/124/152 46/117/153
f 46/117/153 42/124/152 44/125/154
s 35
f 43/120/155 49/123/156 41/129/157
f 41/129/157 49/123/156 48/130/158
s 36
f 45/73/159 44/74/160 56/75/161
f 56/75/161 44/74/160 57/76/162
s 37
f 59/79/163 48/77/164 60/80/165
f 60/80/165 48/77/164 47/78/166
s 38
f 49/123/167 51/127/168 47/132/169
f 47/132/169 51/127/168 50/131/170
s 39
f 52/81/171 63/82/172 50/83/173
f 50/83/173 63/82/172 62/84/174
s 40
f 57/147/175 53/148/176 58/141/177
f 58/141/177 53/148/176 55/135/178
s 41
f 55/135/179 54/134/180 61/136/181
f 61/136/181 54/134/180 59/137/182
s 42
f 58/141/183 64/142/184 56/139/185
f 56/139/185 64/142/184 63/143/186
s 43
f 64/142/187 61/136/188 62/160/189
f 62/160/189 61/136/188 60/159/190
s 44
f 69/87/191 65/85/192 70/88/193
f 70/88/193 65/85/192 67/86/194
s 45
f 80/91/195 68/89/196 81/92/197
f 81/92/197 68/89/196 70/90/198
s 46
f 75/94/199 69/93/200 76/95/201
f 76/95/201 69/93/200 68/89/202
s 47
f 74/98/203 71/96/204 75/99/205
f 75/99/205 71/96/204 73/97/206
s 48
f 88/101/207 74/100/208 86/102/209
f 86/102/209 74/100/208 76/95/210
s 49
f 81/105/211 77/103/212 82/106/213
f 82/106/213 77/103/212 79/104/214
s 50
f 86/102/215 80/91/216 87/108/217
f 87/108/217 80/91/216 82/107/218
s 51
f 87/111/219 83/109/220 88/112/221
f 88/112/221 83/109/220 85/110/222
s 52
f 86/102/223 76/95/224 80/91/225
f 80/91/225 76/95/224 68/89/226
s 53
f 56/75/227 63/82/228 45/73/229
f 45/73/229 63/82/228 52/81/230
s 54
f 72/145/231 58/141/232 66/146/233
f 66/146/233 58/141/232 55/135/234
s 55
f 72/145/235 66/146/236 73/150/237
f 73/150/237 66/146/236 65/149/238
s off
f 55/135/239 61/136/240 66/146/241
s 56
f 67/153/242 66/146/243 77/154/244
f 77/154/244 66/146/243 61/136/245
s off
f 61/136/246 78/156/247 77/154/248
s 57
f 78/156/249 61/136/250 84/155/251
f 84/155/251 61/136/250 64/142/252
s 58
f 78/156/253 84/155/254 79/158/255
f 79/158/255 84/155/254 83/157/256
s off
f 58/141/257 72/145/258 64/142/259
s 59
f 64/142/260 72/145/261 85/152/262
f 85/152/262 72/145/261 71/151/263
s off
f 64/142/264 85/152/265 84/155/266
s 60
f 69/87/267 75/113/268 65/85/269
f 65/85/269 75/113/268 73/114/270
s 61
f 81/105/271 70/88/272 77/103/273
f 77/103/273 70/88/272 67/86/274
s 62
f 87/111/275 82/106/276 83/109/277
f 83/109/277 82/106/276 79/104/278
s 63
f 74/98/279 88/112/280 71/96/281
f 71/96/281 88/112/280 85/110/282
s 64
f 57/115/283 44/116/284 53/71/285
f 53/71/285 44/116/284 42/69/286
s 65
f 59/79/287 54/72/288 48/77/289
f 48/77/289 54/72/288 41/70/290
s 66
f 47/78/291 50/83/292 60/80/293
f 60/80/293 50/83/292 62/84/294
s off
f 41/129/295 42/124/296 43/120/297
f 44/125/298 45/121/299 46/117/300
f 47/132/301 48/130/302 49/123/303
f 50/131/304 51/127/305 52/126/306
f 53/133/307 54/134/308 55/135/309
f 56/139/310 57/140/311 58/141/312
f 59/137/313 60/138/314 61/136/315
f 62/144/316 63/143/317 64/142/318
f 65/149/319 66/146/320 67/153/321
f 68/89/322 69/93/323 70/90/324
f 71/151/325 72/145/326 73/150/327
f 74/100/328 75/94/329 76/95/330
f 77/154/331 78/156/332 79/158/333
f 80/91/334 81/92/335 82/107/336
f 83/157/337 84/155/338 85/152/339
f 86/102/340 87/108/341 88/101/342
