# This file uses centimeters as units for non-parametric coordinates.

mtllib bottomBorder.mtl
g default
v 13.344636 0.036985 -0.483744
v 13.344636 0.036985 -1.483744
v 13.344636 1.036985 -0.483744
v 13.344636 1.036985 -1.483744
v -12.854082 1.036985 -0.483744
v -12.854082 1.036985 -1.483744
v -12.854082 0.036985 -0.483744
v -12.854082 0.036985 -1.483744
v 13.344636 0.848203 -1.483744
v 13.344636 0.848203 -0.483744
v -12.854082 0.848203 -0.483744
v -12.854082 0.848203 -1.483744
v 13.076460 0.785030 -1.453651
v 13.076461 0.785030 -0.562840
v -12.585906 0.785030 -0.562840
v -12.585906 0.785030 -1.453651
v 13.344636 0.204213 -1.483744
v 13.344636 0.204213 -0.483744
v -12.854082 0.204213 -0.483744
v -12.854082 0.204213 -1.483744
v 13.076460 0.269316 -1.453651
v 13.076461 0.269316 -0.562840
v -12.585906 0.269316 -0.562840
v -12.585906 0.269316 -1.453651
vt 0.194348 0.055967
vt 0.117678 0.003407
vt 0.156691 0.049668
vt 0.194348 0.049670
vt 0.201290 0.002372
vt 0.201290 0.040029
vt 0.194993 0.040029
vt 0.194993 0.002372
vt 0.194350 0.009482
vt 0.156693 0.009481
vt 0.156693 0.002372
vt 0.041350 0.003403
vt 0.248587 0.002372
vt 0.248587 0.040029
vt 0.241478 0.040029
vt 0.241478 0.002372
vt 0.191370 0.039278
vt 0.157825 0.039276
vt 0.157825 0.019856
vt 0.191371 0.019857
vt 0.231102 0.005350
vt 0.231103 0.038896
vt 0.211682 0.038896
vt 0.211682 0.005350
vt 0.079209 0.996595
vt 0.041299 0.996593
vt 0.155537 0.996599
vt 0.117627 0.996597
vt 0.030355 0.013569
vt 0.034193 0.003403
vt 0.034142 0.996592
vt 0.006921 0.003402
vt 0.010804 0.013568
vt 0.006871 0.996591
vt 0.010755 0.986425
vt 0.111288 0.996596
vt 0.111338 0.003407
vt 0.108569 0.986430
vt 0.108619 0.013573
vt 0.089019 0.986429
vt 0.089068 0.013572
vt 0.086366 0.996595
vt 0.086416 0.003406
vt 0.000531 0.996591
vt 0.000582 0.003401
vt 0.030305 0.986426
vt 0.194350 0.002373
vt 0.079259 0.003405
vt 0.155588 0.003409
vt 0.156691 0.055965
vn 1.000000 0.000000 0.000000
vn 1.000000 0.000000 0.000000
vn 0.707495 0.706718 0.000000
vn 0.698779 0.715338 -0.000000
vn 0.000000 1.000000 0.000000
vn 0.000000 1.000000 0.000000
vn 0.000000 1.000000 0.000000
vn 0.000000 1.000000 0.000000
vn -0.707492 0.706721 0.000000
vn -0.698780 0.715336 0.000000
vn -1.000000 0.000000 0.000000
vn -1.000000 0.000000 0.000000
vn 0.000000 -1.000000 0.000000
vn 0.000000 -1.000000 0.000000
vn 0.000000 -1.000000 0.000000
vn 0.000000 -1.000000 0.000000
vn 0.000000 0.000000 -1.000000
vn -0.000000 0.000000 -1.000000
vn -0.000000 0.028105 -0.999605
vn -0.000000 0.027567 -0.999620
vn -0.000000 0.000000 1.000000
vn -0.000000 0.000000 1.000000
vn -0.000000 0.100252 0.994962
vn -0.000000 0.098406 0.995146
vn 0.737468 -0.675382 0.000000
vn 0.728809 -0.684717 -0.000000
vn 1.000000 0.000000 0.000000
vn 1.000000 0.000000 0.000000
vn -0.000000 -0.087379 0.996175
vn -0.000000 -0.089042 0.996028
vn -0.000000 0.000000 1.000000
vn -0.000000 0.000000 1.000000
vn -1.000000 0.000000 0.000000
vn -1.000000 0.000000 0.000000
vn -0.737465 -0.675385 0.000000
vn -0.728811 -0.684715 0.000000
vn -0.000000 -0.024084 -0.999710
vn -0.000000 -0.024558 -0.999698
vn -0.000000 0.000000 -1.000000
vn -0.000000 0.000000 -1.000000
vn 0.897411 -0.441196 -0.000001
vn 0.863895 -0.503672 -0.000001
vn -0.000000 -0.217765 0.976001
vn -0.000000 -0.221306 0.975205
vn -0.863894 -0.503673 0.000000
vn -0.897412 -0.441193 0.000000
vn 0.000000 -0.087188 -0.996192
vn -0.000000 -0.088657 -0.996062
vn 0.864860 0.502013 -0.000001
vn 0.898042 0.439909 -0.000001
vn -0.000000 0.219902 0.975522
vn -0.000000 0.216400 0.976305
vn -0.898044 0.439906 0.000000
vn -0.864859 0.502014 0.000000
vn -0.000000 0.088008 -0.996120
vn 0.000000 0.086557 -0.996247
s 1
g bottomBorder
usemtl lambert44SG
f 1/1/1 2/50/2 18/4/3
f 18/4/3 2/50/2 17/3/4
s 2
f 3/12/5 4/48/6 5/26/7
f 5/26/7 4/48/6 6/25/8
s 3
f 19/5/9 20/6/10 7/8/11
f 7/8/11 20/6/10 8/7/12
s 4
f 7/27/13 8/28/14 1/49/15
f 1/49/15 8/28/14 2/2/16
s 5
f 2/2/17 8/28/18 17/37/19
f 17/37/19 8/28/18 20/36/20
s 6
f 7/44/21 1/45/22 19/34/23
f 19/34/23 1/45/22 18/32/24
s 1
f 10/9/25 9/10/26 3/47/27
f 3/47/27 9/10/26 4/11/28
s 6
f 11/31/29 10/30/30 5/26/31
f 5/26/31 10/30/30 3/12/32
s 3
f 5/13/33 6/14/34 11/16/35
f 11/16/35 6/14/34 12/15/36
s 5
f 9/43/37 12/42/38 4/48/39
f 4/48/39 12/42/38 6/25/40
s 1
f 13/19/41 9/10/26 14/20/42
f 14/20/42 9/10/26 10/9/25
s 6
f 15/46/43 14/29/44 11/31/29
f 11/31/29 14/29/44 10/30/30
s 3
f 11/16/35 12/15/36 15/21/45
f 15/21/45 12/15/36 16/22/46
s 5
f 13/41/47 16/40/48 9/43/37
f 9/43/37 16/40/48 12/42/38
s 1
f 18/4/3 17/3/4 22/17/49
f 22/17/49 17/3/4 21/18/50
s 6
f 19/34/23 18/32/24 23/35/51
f 23/35/51 18/32/24 22/33/52
s 3
f 24/23/53 20/6/10 23/24/54
f 23/24/54 20/6/10 19/5/9
s 5
f 17/37/19 20/36/20 21/39/55
f 21/39/55 20/36/20 24/38/56
s 1
f 22/17/49 21/18/50 14/20/42
f 14/20/42 21/18/50 13/19/41
s 6
f 23/35/51 22/33/52 15/46/43
f 15/46/43 22/33/52 14/29/44
s 3
f 15/21/45 16/22/46 23/24/54
f 23/24/54 16/22/46 24/23/53
s 5
f 21/39/55 24/38/56 13/41/47
f 13/41/47 24/38/56 16/40/48
