# This file uses centimeters as units for non-parametric coordinates.

mtllib bush2.mtl
g default
v -0.549761 0.271367 0.339437
v 0.429491 0.204382 0.360346
v -0.471872 1.375929 0.270236
v 0.444234 1.404582 0.365130
v -0.493380 1.320011 -0.781414
v 0.487837 1.316702 -0.502874
v -0.550390 0.281671 -0.761526
v 0.510210 0.154741 -0.702650
v -0.664286 1.556462 -0.213735
v 0.675554 0.727327 -0.889089
v -0.012879 0.028823 -0.846736
v -0.697874 0.759232 -0.933687
v 0.583618 0.059209 -0.173669
v -0.701443 0.199519 -0.177369
v -0.024603 0.185930 0.505139
v 0.710447 0.639200 0.595553
v -0.034005 1.523759 0.462482
v -0.683378 0.751256 0.574649
v 0.638259 1.456742 -0.173279
v -0.007714 1.421359 -0.735525
v -0.019471 0.756428 0.899494
v -0.040109 1.779341 -0.215010
v -0.010513 0.709765 -1.142406
v -0.011427 -0.220135 -0.180190
v 0.943700 0.692392 -0.231516
v -0.898842 0.783300 -0.184943
v -0.597300 1.006492 -0.871114
v 0.598358 1.077415 -0.731756
v 0.355057 0.708632 -1.023982
v 0.683558 0.378067 -0.887472
v 0.297992 0.062374 -0.793745
v -0.018787 0.371794 -1.168142
v -0.329906 0.132747 -0.836219
v -0.725963 0.523013 -0.960239
v -0.011386 -0.163437 -0.539485
v -0.386614 -0.084697 -0.174851
v -0.644139 0.202075 -0.506169
v 0.596413 0.065921 -0.489263
v 0.316290 -0.137852 -0.176865
v 0.495474 0.134045 0.142543
v -0.016959 -0.158632 0.192981
v -0.656632 0.209949 0.132539
v 0.919347 0.329556 -0.184844
v 0.979988 0.602803 0.218660
v 0.874032 0.737795 -0.633767
v 0.868611 1.055239 -0.246552
v -0.971624 0.448394 -0.199222
v -0.875697 0.720896 -0.553381
v -0.863361 0.767170 0.194339
v -0.777644 1.154439 -0.159872
v -0.330471 0.220136 0.450588
v -0.029723 0.477174 0.919214
v -0.391006 0.709525 0.766487
v -0.789597 0.484750 0.569036
v 0.256889 0.227769 0.457588
v 0.654563 0.384526 0.516873
v 0.359195 0.702156 0.864916
v 0.659374 1.011786 0.480870
v 0.253814 1.485466 0.466143
v -0.008948 1.041479 0.822324
v -0.306646 1.490875 0.352138
v -0.544158 0.984929 0.460317
v -0.075951 1.750764 0.102089
v -0.397223 1.840507 -0.260586
v -0.589477 1.534808 0.041422
v 0.550389 1.491711 0.127699
v 0.286862 1.653653 -0.170499
v 0.594744 1.388987 -0.389897
v 0.276111 1.388456 -0.552835
v -0.013641 1.638030 -0.494639
v -0.290696 1.397217 -0.866765
v -0.607464 1.455167 -0.501946
v -0.002649 1.058562 -1.006994
v -0.378227 0.755591 -1.153486
v -0.397016 0.460475 0.865415
v 0.358556 0.391389 0.704654
v 0.315074 1.019354 0.789318
v -0.348374 1.018318 0.628996
v -0.371408 1.802402 0.000813
v 0.219400 1.668090 0.162606
v 0.311270 1.540237 -0.382408
v -0.349134 1.674163 -0.533726
v -0.310636 1.008312 -1.073097
v 0.302151 1.084378 -0.817593
v 0.366816 0.341933 -1.065312
v -0.411954 0.513709 -1.166592
v -0.352326 -0.064341 -0.514194
v 0.322885 -0.106415 -0.514589
v 0.259260 -0.060575 0.171225
v -0.357961 -0.078410 0.166784
v 0.828300 0.369512 0.202720
v 0.875255 0.359204 -0.584647
v 0.796072 1.079137 -0.570291
v 0.882262 1.008409 0.146543
v -0.903009 0.432415 -0.588046
v -0.956718 0.442290 0.163886
v -0.696136 1.064632 0.178033
v -0.770681 1.078077 -0.507309
vt 0.155593 0.743767
vt 0.174310 0.656661
vt 0.252279 0.656372
vt 0.215545 0.744204
vt 0.066564 0.710642
vt 0.085934 0.639827
vt 0.193378 0.574141
vt 0.275022 0.572788
vt 0.331113 0.664794
vt 0.304047 0.744711
vt 0.159085 0.830452
vt 0.216474 0.839146
vt 0.016620 0.622189
vt 0.000000 0.699996
vt 0.105680 0.572533
vt 0.197798 0.498503
vt 0.279998 0.504274
vt 0.350217 0.594533
vt 0.425616 0.704366
vt 0.424325 0.777055
vt 0.301769 0.829720
vt 0.156271 0.910798
vt 0.232689 0.934011
vt 0.040331 0.549336
vt 0.119275 0.519104
vt 0.363983 0.538452
vt 0.427585 0.651291
vt 0.401592 0.835442
vt 0.307281 0.928335
vt 0.075953 0.485730
vt 0.425480 0.879558
vt 0.135783 0.243718
vt 0.206652 0.201300
vt 0.246842 0.261034
vt 0.172650 0.291344
vt 0.099272 0.179224
vt 0.160871 0.138817
vt 0.270795 0.155617
vt 0.314571 0.217029
vt 0.291692 0.330546
vt 0.218894 0.354635
vt 0.069501 0.304963
vt 0.103186 0.346301
vt 0.042445 0.116029
vt 0.102144 0.068536
vt 0.210652 0.092735
vt 0.051194 0.220698
vt 0.365639 0.127502
vt 0.396741 0.181950
vt 0.352793 0.281717
vt 0.323386 0.413647
vt 0.260352 0.430953
vt 0.139791 0.394235
vt 0.045498 0.406593
vt 0.010330 0.364683
vt 0.000000 0.189201
vt 0.158372 0.018574
vt 0.471401 0.104719
vt 0.469865 0.162956
vt 0.413622 0.243647
vt 0.373143 0.388162
vt 0.353586 0.490026
vt 0.279096 0.502825
vt 0.191180 0.449074
vt 0.088844 0.450473
vt 0.246351 0.000000
vt 0.245923 0.054423
vt 0.470420 0.239068
vt 0.416784 0.340378
vt 0.405809 0.456470
vt 0.177707 0.497237
vt 0.459688 0.361337
vt 0.569517 0.422742
vt 0.622953 0.432227
vt 0.621862 0.536858
vt 0.523393 0.494801
vt 0.691251 0.429534
vt 0.702369 0.539013
vt 0.540060 0.379723
vt 0.466737 0.417742
vt 0.605871 0.342624
vt 0.680724 0.332392
vt 0.753884 0.419176
vt 0.781193 0.481220
vt 0.589332 0.266860
vt 0.673770 0.255064
vt 0.743650 0.330331
vt 0.790730 0.395367
vt 0.845122 0.441779
vt 0.587236 0.189718
vt 0.664373 0.180253
vt 0.745360 0.247995
vt 0.807280 0.346001
vt 0.889555 0.378534
vt 0.580392 0.105054
vt 0.652243 0.105523
vt 0.737208 0.171868
vt 0.544281 0.000000
vt 0.634798 0.006431
vt 0.721099 0.100109
vt 0.722606 0.013900
vt 0.473713 0.040835
vt 0.520478 0.102990
vt 0.801199 0.024182
vt 0.774397 0.092350
vt 0.690454 0.682561
vt 0.759245 0.685723
vt 0.741256 0.751143
vt 0.664636 0.736101
vt 0.747679 0.593737
vt 0.809626 0.610276
vt 0.825796 0.696685
vt 0.815273 0.768405
vt 0.734465 0.817424
vt 0.661159 0.808080
vt 0.784752 0.479886
vt 0.868916 0.495466
vt 0.868738 0.632827
vt 0.899990 0.729541
vt 0.895804 0.800181
vt 0.811513 0.820164
vt 0.728320 0.886187
vt 0.663267 0.904366
vt 0.932890 0.525759
vt 0.906576 0.668106
vt 0.875230 0.847553
vt 0.799995 0.868697
vt 0.726634 0.983806
vt 0.659307 1.000000
vt 0.849409 0.874988
vt 0.800485 0.956187
vt 0.917941 0.926388
vt 0.867224 0.948701
vt 0.431908 0.663327
vt 0.438826 0.582875
vt 0.499346 0.582792
vt 0.489880 0.667972
vt 0.417779 0.487084
vt 0.492407 0.500288
vt 0.563010 0.583869
vt 0.564021 0.669020
vt 0.563055 0.512709
vt 0.823034 0.218106
vt 0.814780 0.148962
vt 0.894809 0.159903
vt 0.879302 0.238221
vt 0.802919 0.071704
vt 0.896316 0.077046
vt 0.967864 0.165369
vt 0.931552 0.249047
vt 0.807099 0.004968
vt 0.891937 0.001831
vt 0.976225 0.078760
vt 0.967731 0.000000
vn -0.490736 -0.748389 0.446197
vn -0.299969 -0.777406 0.552865
vn -0.718798 -0.411982 0.560001
vn -0.354434 -0.498218 0.791300
vn 0.007932 -0.777506 0.628825
vn 0.025384 -0.525795 0.850232
vn -0.412943 0.343996 0.843294
vn -0.155075 0.202268 0.966974
vn -0.678734 0.413982 0.606580
vn 0.218031 -0.774645 0.593623
vn 0.329725 -0.639811 0.694207
vn 0.398152 -0.785032 0.474553
vn 0.569171 -0.617931 0.542408
vn 0.719861 0.022455 0.693755
vn 0.447982 -0.021847 0.893776
vn 0.390089 0.432172 0.813055
vn -0.200129 0.466940 0.861345
vn 0.693530 0.408692 0.593286
vn 0.591217 0.584889 0.555309
vn 0.288665 0.679285 0.674718
vn -0.159677 0.681724 0.713971
vn -0.479811 0.461564 0.746150
vn -0.681794 0.499352 0.534607
vn -0.430520 0.588384 0.684439
vn -0.677637 0.403625 0.614732
vn -0.768167 0.460327 0.444993
vn -0.332583 0.846499 0.415725
vn 0.072449 0.917849 0.390261
vn 0.271296 0.947896 -0.167009
vn -0.329554 0.913261 -0.239476
vn -0.873090 0.482531 -0.069843
vn 0.319080 0.905213 0.280673
vn 0.662606 0.692178 0.286081
vn 0.419211 0.897770 -0.135174
vn 0.730233 0.681138 -0.053017
vn 0.279906 0.795445 -0.537514
vn 0.414401 0.763396 -0.495479
vn 0.606952 0.671939 -0.424391
vn 0.335427 0.662486 -0.669776
vn 0.429002 0.630582 -0.646779
vn 0.345456 0.652378 -0.674583
vn -0.225613 0.791836 -0.567533
vn -0.782319 0.486126 -0.389434
vn -0.061686 0.637083 -0.768323
vn -0.640489 0.470149 -0.607235
vn -0.173659 0.411235 -0.894834
vn -0.702107 0.394237 -0.592979
vn 0.287676 0.466514 -0.836425
vn 0.192970 0.196721 -0.961282
vn -0.269032 0.231252 -0.934957
vn -0.744769 0.302934 -0.594600
vn 0.371194 0.549129 -0.748780
vn 0.406655 0.556921 -0.724204
vn 0.560357 0.249012 -0.789932
vn 0.356180 0.275588 -0.892853
vn 0.025059 -0.405716 -0.913655
vn 0.350808 -0.331692 -0.875736
vn 0.626373 -0.352822 -0.695106
vn 0.501483 -0.710431 -0.493763
vn 0.317535 -0.749571 -0.580788
vn -0.049173 -0.767939 -0.638633
vn -0.328445 -0.363741 -0.871675
vn -0.691219 -0.356104 -0.628814
vn -0.401408 -0.698999 -0.591838
vn -0.536916 -0.692040 -0.482495
vn -0.634120 -0.733564 -0.244492
vn -0.479380 -0.825391 -0.298202
vn -0.062115 -0.937144 -0.343370
vn -0.044980 -0.998865 0.015676
vn -0.527703 -0.849265 -0.016721
vn -0.663419 -0.748107 -0.014542
vn 0.362333 -0.889021 -0.279923
vn 0.599442 -0.772635 -0.209056
vn 0.587288 -0.794461 0.154675
vn 0.426016 -0.898762 0.103624
vn 0.407896 -0.795820 0.447540
vn 0.018613 -0.867682 0.496771
vn 0.544477 -0.762831 0.348761
vn -0.626051 -0.733019 0.265976
vn -0.442086 -0.811716 0.381675
vn 0.666320 -0.658148 0.350511
vn 0.865971 -0.499878 0.014699
vn 0.951269 -0.035320 0.306334
vn 0.992063 0.078329 -0.098368
vn 0.866763 -0.389310 -0.311705
vn 0.909103 0.135104 -0.394055
vn 0.920851 0.382468 -0.075847
vn 0.780965 0.470790 -0.410427
vn 0.876870 0.397171 0.270840
vn -0.861752 -0.403381 -0.307681
vn -0.946732 -0.318168 -0.049678
vn -0.932567 0.237542 -0.271832
vn -0.956343 0.291565 0.019929
vn -0.914336 -0.325638 0.240726
vn -0.885863 0.384136 0.260165
vn -0.835668 0.379729 0.396819
vn -0.944704 0.311852 0.101407
vn -0.893293 0.348452 -0.283916
s 1
g bush2
usemtl initialShadingGroup
f 1/73/1 51/74/2 54/76/3
f 54/76/3 51/74/2 75/75/4
f 51/74/2 15/77/5 75/75/4
f 75/75/4 15/77/5 52/78/6
f 75/134/4 52/135/6 53/137/7
f 53/137/7 52/135/6 21/136/8
f 75/58/4 53/59/7 54/48/3
f 54/48/3 53/59/7 18/49/9
f 55/83/10 76/84/11 15/77/5
f 15/77/5 76/84/11 52/78/6
f 55/83/10 2/88/12 76/84/11
f 76/84/11 2/88/12 56/89/13
f 56/11/13 16/12/14 76/22/11
f 76/22/11 16/12/14 57/23/15
f 76/138/11 57/139/15 52/135/6
f 52/135/6 57/139/15 21/136/8
f 57/139/15 77/142/16 21/136/8
f 21/136/8 77/142/16 60/140/17
f 16/12/14 58/21/18 57/23/15
f 57/23/15 58/21/18 77/29/16
f 58/21/18 4/28/19 77/29/16
f 77/29/16 4/28/19 59/31/20
f 77/124/16 59/118/20 60/117/17
f 60/117/17 59/118/20 17/111/21
f 53/59/7 78/68/22 18/49/9
f 18/49/9 78/68/22 62/60/23
f 53/137/7 21/136/8 78/141/22
f 78/141/22 21/136/8 60/140/17
f 60/117/17 17/111/21 78/116/22
f 78/116/22 17/111/21 61/110/24
f 62/60/23 78/68/22 3/69/25
f 3/69/25 78/68/22 61/72/24
f 3/69/25 61/72/24 65/61/26
f 65/61/26 61/72/24 79/70/27
f 17/111/21 63/107/28 61/110/24
f 61/110/24 63/107/28 79/106/27
f 63/107/28 22/108/29 79/106/27
f 79/106/27 22/108/29 64/109/30
f 65/61/26 79/70/27 9/51/31
f 9/51/31 79/70/27 64/62/30
f 59/118/20 80/112/32 17/111/21
f 17/111/21 80/112/32 63/107/28
f 59/118/20 4/125/19 80/112/32
f 80/112/32 4/125/19 66/119/33
f 80/112/32 66/119/33 67/113/34
f 67/113/34 66/119/33 19/120/35
f 80/112/32 67/113/34 63/107/28
f 63/107/28 67/113/34 22/108/29
f 22/108/29 67/113/34 70/114/36
f 70/114/36 67/113/34 81/121/37
f 67/113/34 19/120/35 81/121/37
f 81/121/37 19/120/35 68/126/38
f 68/126/38 6/130/39 81/121/37
f 81/121/37 6/130/39 69/127/40
f 81/121/37 69/127/40 70/114/36
f 70/114/36 69/127/40 20/122/41
f 64/62/30 82/63/42 9/51/31
f 9/51/31 82/63/42 72/52/43
f 64/109/30 22/108/29 82/115/42
f 82/115/42 22/108/29 70/114/36
f 70/114/36 20/122/41 82/115/42
f 82/115/42 20/122/41 71/123/44
f 72/52/43 82/63/42 5/64/45
f 5/64/45 82/63/42 71/71/44
f 71/71/44 83/65/46 5/64/45
f 5/64/45 83/65/46 27/53/47
f 20/122/41 73/128/48 71/123/44
f 71/123/44 73/128/48 83/129/46
f 73/144/48 23/145/49 83/143/46
f 83/143/46 23/145/49 74/146/50
f 83/65/46 74/54/50 27/53/47
f 27/53/47 74/54/50 12/43/51
f 69/127/40 84/131/52 20/122/41
f 20/122/41 84/131/52 73/128/48
f 69/127/40 6/130/39 84/131/52
f 84/131/52 6/130/39 28/133/53
f 28/151/53 10/152/54 84/147/52
f 84/147/52 10/152/54 29/148/55
f 84/147/52 29/148/55 73/144/48
f 73/144/48 29/148/55 23/145/49
f 23/145/49 29/148/55 32/149/56
f 32/149/56 29/148/55 85/153/57
f 10/152/54 30/154/58 29/148/55
f 29/148/55 30/154/58 85/153/57
f 30/104/58 8/105/59 85/101/57
f 85/101/57 8/105/59 31/100/60
f 32/99/56 85/101/57 11/96/61
f 11/96/61 85/101/57 31/100/60
f 74/54/50 86/55/62 12/43/51
f 12/43/51 86/55/62 34/42/63
f 74/146/50 23/145/49 86/150/62
f 86/150/62 23/145/49 32/149/56
f 86/98/62 32/99/56 33/95/64
f 33/95/64 32/99/56 11/96/61
f 34/102/63 86/98/62 7/103/65
f 7/103/65 86/98/62 33/95/64
f 7/47/65 33/56/64 37/36/66
f 37/36/66 33/56/64 87/44/67
f 33/95/64 11/96/61 87/90/67
f 87/90/67 11/96/61 35/91/68
f 35/91/68 24/86/69 87/90/67
f 87/90/67 24/86/69 36/85/70
f 87/44/67 36/45/70 37/36/66
f 37/36/66 36/45/70 14/37/71
f 11/96/61 31/100/60 35/91/68
f 35/91/68 31/100/60 88/97/72
f 31/30/60 8/25/59 88/24/72
f 88/24/72 8/25/59 38/15/73
f 38/15/73 13/6/74 88/24/72
f 88/24/72 13/6/74 39/13/75
f 35/91/68 88/97/72 24/86/69
f 24/86/69 88/97/72 39/92/75
f 39/92/75 89/87/76 24/86/69
f 24/86/69 89/87/76 41/82/77
f 13/6/74 40/5/78 39/13/75
f 39/13/75 40/5/78 89/14/76
f 40/93/78 2/88/12 89/87/76
f 89/87/76 2/88/12 55/83/10
f 41/82/77 89/87/76 15/77/5
f 15/77/5 89/87/76 55/83/10
f 14/37/71 36/45/70 42/46/79
f 42/46/79 36/45/70 90/57/80
f 36/85/70 24/86/69 90/81/80
f 90/81/80 24/86/69 41/82/77
f 41/82/77 15/77/5 90/81/80
f 90/81/80 15/77/5 51/74/2
f 42/46/79 90/57/80 1/67/1
f 1/67/1 90/57/80 51/66/2
f 40/93/78 91/94/81 2/88/12
f 2/88/12 91/94/81 56/89/13
f 40/5/78 13/6/74 91/1/81
f 91/1/81 13/6/74 43/2/82
f 91/1/81 43/2/82 44/4/83
f 44/4/83 43/2/82 25/3/84
f 56/11/13 91/1/81 16/12/14
f 16/12/14 91/1/81 44/4/83
f 13/6/74 38/15/73 43/2/82
f 43/2/82 38/15/73 92/7/85
f 38/15/73 8/25/59 92/7/85
f 92/7/85 8/25/59 30/16/58
f 92/7/85 30/16/58 45/8/86
f 45/8/86 30/16/58 10/17/54
f 43/2/82 92/7/85 25/3/84
f 25/3/84 92/7/85 45/8/86
f 25/3/84 45/8/86 46/9/87
f 46/9/87 45/8/86 93/18/88
f 10/17/54 28/26/53 45/8/86
f 45/8/86 28/26/53 93/18/88
f 28/133/53 6/130/39 93/132/88
f 93/132/88 6/130/39 68/126/38
f 93/18/88 68/27/38 46/9/87
f 46/9/87 68/27/38 19/19/35
f 16/12/14 44/4/83 58/21/18
f 58/21/18 44/4/83 94/10/89
f 44/4/83 25/3/84 94/10/89
f 94/10/89 25/3/84 46/9/87
f 46/9/87 19/19/35 94/10/89
f 94/10/89 19/19/35 66/20/33
f 94/10/89 66/20/33 58/21/18
f 58/21/18 66/20/33 4/28/19
f 37/36/66 95/32/90 7/47/65
f 7/47/65 95/32/90 34/42/63
f 14/37/71 47/33/91 37/36/66
f 37/36/66 47/33/91 95/32/90
f 95/32/90 47/33/91 48/35/92
f 48/35/92 47/33/91 26/34/93
f 95/32/90 48/35/92 34/42/63
f 34/42/63 48/35/92 12/43/51
f 42/46/79 96/38/94 14/37/71
f 14/37/71 96/38/94 47/33/91
f 42/79/79 1/73/1 96/80/94
f 96/80/94 1/73/1 54/76/3
f 96/38/94 54/48/3 49/39/95
f 49/39/95 54/48/3 18/49/9
f 47/33/91 96/38/94 26/34/93
f 26/34/93 96/38/94 49/39/95
f 49/39/95 97/50/96 26/34/93
f 26/34/93 97/50/96 50/40/97
f 18/49/9 62/60/23 49/39/95
f 49/39/95 62/60/23 97/50/96
f 62/60/23 3/69/25 97/50/96
f 97/50/96 3/69/25 65/61/26
f 97/50/96 65/61/26 50/40/97
f 50/40/97 65/61/26 9/51/31
f 12/43/51 48/35/92 27/53/47
f 27/53/47 48/35/92 98/41/98
f 48/35/92 26/34/93 98/41/98
f 98/41/98 26/34/93 50/40/97
f 98/41/98 50/40/97 72/52/43
f 72/52/43 50/40/97 9/51/31
f 27/53/47 98/41/98 5/64/45
f 5/64/45 98/41/98 72/52/43
