# This file uses centimeters as units for non-parametric coordinates.

mtllib topBorders.mtl
g default
v -12.992019 0.086187 0.492574
v 13.071630 0.086187 0.492574
v -12.992019 1.086187 0.492574
v 13.071630 1.086187 0.492574
v -12.992019 1.086187 -0.507426
v 13.071630 1.086187 -0.507426
v -12.992019 0.086187 -0.507426
v 13.071630 0.086187 -0.507426
v -4.493864 1.086187 -0.507426
v -4.493864 0.086187 -0.507426
v -4.493864 0.086187 0.492574
v -4.493864 1.086187 0.492574
v 4.230604 1.086187 -0.507426
v 4.230604 0.086187 -0.507426
v 4.230604 0.086187 0.492574
v 4.230604 1.086187 0.492574
v 4.230604 0.932273 0.492574
v 4.230604 0.932273 -0.507426
v 13.071630 0.932273 -0.507426
v 13.071630 0.932273 0.492574
v 4.230604 0.261523 0.492574
v 4.230604 0.261523 -0.507426
v 13.071630 0.261523 -0.507426
v 13.071630 0.261523 0.492574
v 4.018258 0.903608 0.452859
v 4.018258 0.898910 -0.463639
v 12.898906 0.898910 -0.463639
v 12.898906 0.903608 0.452859
v 4.018258 0.295704 0.452859
v 4.018258 0.300402 -0.463639
v 12.898906 0.300402 -0.463639
v 12.898906 0.295704 0.452859
v -4.493864 0.873971 0.492574
v -12.992019 0.873971 0.492574
v -12.992019 0.873971 -0.507426
v -4.493864 0.873971 -0.507426
v -4.255619 0.852764 0.446682
v -12.724316 0.852764 0.446682
v -12.724316 0.840386 -0.429563
v -4.255619 0.840386 -0.429563
v -4.493864 0.291924 0.492574
v -12.992019 0.291924 0.492574
v -12.992019 0.291924 -0.507426
v -4.493864 0.291924 -0.507426
v -4.255619 0.305881 0.446682
v -12.724316 0.305881 0.446682
v -12.724316 0.318259 -0.429563
v -4.255619 0.318259 -0.429563
vt 0.470739 0.003448
vt 0.569124 0.003448
vt 0.569124 0.020698
vt 0.470739 0.020698
vt 0.101138 0.996552
vt 0.003258 0.996552
vt 0.003258 0.976415
vt 0.101138 0.976415
vt 0.586375 0.907774
vt 0.586375 0.890522
vt 0.684759 0.890522
vt 0.684760 0.907771
vt 0.121275 0.124484
vt 0.219154 0.124484
vt 0.219154 0.144621
vt 0.121275 0.144621
vt 0.469273 0.886889
vt 0.469273 0.902005
vt 0.371057 0.902005
vt 0.371057 0.886888
vt 0.371057 0.003448
vt 0.469273 0.003448
vt 0.469273 0.018564
vt 0.371057 0.018564
vt 0.464972 0.922861
vt 0.465273 0.981642
vt 0.375263 0.982565
vt 0.374958 0.922861
vt 0.003258 0.093021
vt 0.003717 0.003448
vt 0.062212 0.003448
vt 0.062671 0.093021
vt 0.842210 0.859652
vt 0.940215 0.859652
vt 0.940215 0.880451
vt 0.842210 0.880449
vt 0.119310 0.006211
vt 0.217150 0.003448
vt 0.217736 0.024211
vt 0.119896 0.026974
vt 0.064305 0.089087
vt 0.063096 0.003448
vt 0.116545 0.003448
vt 0.115335 0.089087
vt 0.128173 0.050070
vt 0.213905 0.047647
vt 0.214662 0.101164
vt 0.128896 0.101165
vt 0.723408 0.859652
vt 0.723408 0.026797
vt 0.821412 0.026797
vt 0.821412 0.859652
vt 0.121275 0.976415
vt 0.219154 0.976415
vt 0.586375 0.020698
vt 0.684759 0.020698
vt 0.590684 0.928667
vt 0.680853 0.928662
vt 0.564816 0.037691
vt 0.474646 0.037691
vt 0.564816 0.911414
vt 0.569124 0.890522
vt 0.474646 0.911414
vt 0.470739 0.890522
vt 0.352040 0.035528
vt 0.262026 0.035528
vt 0.257725 0.018564
vt 0.355941 0.018564
vt 0.257725 0.886888
vt 0.262026 0.907744
vt 0.355941 0.886888
vt 0.352040 0.907744
vt 0.935717 0.833416
vt 0.935717 0.003448
vt 0.940215 0.026797
vt 0.849842 0.833416
vt 0.842210 0.026797
vt 0.849842 0.003448
vt 0.003258 0.144621
vt 0.007750 0.121302
vt 0.007750 0.950212
vt 0.093516 0.950212
vt 0.093516 0.121302
vt 0.101138 0.144621
vt 0.239291 0.144621
vt 0.239291 0.976415
vt 0.702010 0.020698
vt 0.702010 0.890522
vt 0.242608 0.886888
vt 0.242608 0.018564
vt 0.505932 0.911414
vt 0.505932 0.037691
vt 0.292335 0.907744
vt 0.292335 0.035528
vt 0.702610 0.859652
vt 0.702610 0.026797
vt 0.061279 0.121302
vt 0.061279 0.950212
vt 0.901012 0.003448
vt 0.901012 0.833416
vn 0.000000 0.000000 1.000000
vn 0.000000 0.000000 1.000000
vn 0.000000 0.024979 0.999688
vn 0.000000 0.346716 0.937970
vn 0.000000 1.000000 0.000000
vn 0.000000 1.000000 0.000000
vn 0.000000 1.000000 0.000000
vn 0.000000 1.000000 0.000000
vn 0.000000 0.069904 -0.997554
vn 0.000000 0.481405 -0.876498
vn 0.000000 0.000000 -1.000000
vn 0.000000 0.000000 -1.000000
vn 0.000000 -1.000000 0.000000
vn 0.000000 -1.000000 0.000000
vn 0.000000 -1.000000 0.000000
vn 0.000000 -1.000000 0.000000
vn 1.000000 0.000000 0.000000
vn 1.000000 0.000000 0.000000
vn 0.827674 0.561205 0.002456
vn 0.818648 0.574296 0.000000
vn -1.000000 0.000000 0.000000
vn -1.000000 0.000000 0.000000
vn -0.719122 0.694884 0.000000
vn -0.712773 0.701353 0.007681
vn 0.000000 0.309912 -0.950765
vn 0.000000 0.049612 -0.998769
vn 0.000000 0.000000 -1.000000
vn 0.000000 0.000000 -1.000000
vn 0.000000 -1.000000 0.000000
vn 0.000000 -1.000000 0.000000
vn 0.000000 -1.000000 0.000000
vn 0.000000 -1.000000 0.000000
vn 0.000000 0.040940 0.999162
vn 0.000000 0.294780 0.955565
vn 0.000000 0.000000 1.000000
vn 0.000000 0.000000 1.000000
vn 0.000000 1.000000 0.000000
vn 0.000000 1.000000 0.000000
vn 0.000000 1.000000 0.000000
vn 0.000000 1.000000 0.000000
vn -0.748682 -0.662930 0.000000
vn -1.000000 0.000000 0.000000
vn -0.759825 -0.650122 -0.002759
vn -1.000000 0.000000 0.000000
vn 0.765555 -0.643371 0.000000
vn 0.757238 -0.653097 -0.007336
vn 1.000000 0.000000 0.000000
vn 1.000000 0.000000 0.000000
vn -1.000000 0.000000 0.000000
vn -0.702926 0.711263 0.000000
vn -1.000000 0.000000 0.000000
vn -0.714232 0.699903 -0.002972
vn 0.000000 0.000000 -1.000000
vn 0.000000 0.000000 -1.000000
vn 0.000000 -0.351278 -0.936271
vn 0.000000 -0.053519 -0.998567
vn 0.789945 -0.613171 0.002686
vn 0.780399 -0.625281 0.000000
vn 1.000000 0.000000 0.000000
vn 1.000000 0.000000 0.000000
vn 0.000000 0.000000 1.000000
vn 0.000000 -0.336239 0.941777
vn 0.000000 0.000000 1.000000
vn 0.000000 -0.043907 0.999036
vn -0.929398 -0.369078 -0.000219
vn -0.938377 -0.345610 -0.001771
vn 0.000000 0.012393 -0.999923
vn 0.000000 0.116167 -0.993230
vn 0.949428 0.313985 0.000149
vn 0.956256 0.292529 0.001499
vn 0.000000 0.009975 0.999950
vn 0.000000 0.106417 0.994322
vn -0.927296 0.374328 -0.000221
vn -0.936636 0.350299 -0.001795
vn 0.000000 -0.118569 -0.992946
vn 0.000000 -0.011708 -0.999932
vn 0.954945 -0.296779 0.001521
vn 0.947816 -0.318818 0.000151
vn 0.000000 -0.108634 0.994082
vn 0.000000 -0.009364 0.999956
vn 0.000000 -0.025386 0.999678
vn 0.000000 -0.321265 0.946989
vn 0.000000 0.000000 1.000000
vn 0.000000 0.000000 1.000000
vn -0.737141 -0.675739 0.000000
vn -0.731601 -0.681693 0.007460
vn -1.000000 0.000000 0.000000
vn -1.000000 0.000000 0.000000
vn 0.000000 0.000000 -1.000000
vn 0.000000 0.000000 -1.000000
vn 0.000000 -0.069338 -0.997593
vn 0.000000 -0.453401 -0.891307
vn 1.000000 0.000000 0.000000
vn 1.000000 0.000000 0.000000
vn 0.781686 0.623672 0.000000
vn 0.774363 0.632702 -0.007101
vn 0.000000 -0.011112 0.999938
vn 0.000000 -0.146021 0.989282
vn -0.885224 -0.465119 0.006570
vn -0.853235 -0.521526 0.001007
vn 0.000000 -0.235107 -0.971970
vn 0.000000 -0.031998 -0.999488
vn 0.871705 0.490031 -0.000831
vn 0.901500 0.432736 -0.006113
vn 0.000000 0.149871 0.988706
vn 0.000000 0.010579 0.999944
vn -0.845418 0.534104 0.001029
vn -0.879460 0.475926 0.006723
vn 0.000000 0.031192 -0.999514
vn 0.000000 0.240862 -0.970559
vn 0.901586 -0.432557 -0.006110
vn 0.871209 -0.490913 -0.000830
s 1
g topBorderl
usemtl lambert44SG
f 1/54/1 11/15/2 42/86/3
f 42/86/3 11/15/2 41/85/4
s 2
f 3/49/5 12/50/6 5/52/7
f 5/52/7 12/50/6 9/51/8
s 3
f 43/8/9 44/84/10 7/53/11
f 7/53/11 44/84/10 10/16/12
s 4
f 7/53/13 10/16/14 1/54/15
f 1/54/15 10/16/14 11/15/16
s 5
f 2/1/17 8/2/18 24/4/19
f 24/4/19 8/2/18 23/3/20
s 6
f 7/5/21 1/6/22 43/8/23
f 43/8/23 1/6/22 42/7/24
s 7
f 22/62/25 23/3/26 14/10/27
f 14/10/27 23/3/26 8/55/28
s 8
f 15/11/29 14/10/30 2/56/31
f 2/56/31 14/10/30 8/55/32
s 9
f 24/87/33 21/88/34 2/56/35
f 2/56/35 21/88/34 15/11/36
s 10
f 13/17/37 16/20/38 6/23/39
f 6/23/39 16/20/38 4/24/40
s 11
f 22/9/41 14/10/42 21/12/43
f 21/12/43 14/10/42 15/11/44
s 12
f 44/13/45 41/14/46 10/16/47
f 10/16/47 41/14/46 11/15/48
s 11
f 13/17/49 18/18/50 16/20/51
f 16/20/51 18/18/50 17/19/52
s 7
f 13/89/53 6/90/54 18/69/55
f 18/69/55 6/90/54 19/67/56
s 5
f 20/21/57 19/22/58 4/24/59
f 4/24/59 19/22/58 6/23/60
s 9
f 16/20/61 17/71/62 4/24/63
f 4/24/63 17/71/62 20/68/64
s 11
f 22/9/41 21/12/43 30/57/65
f 30/57/65 21/12/43 29/58/66
s 7
f 30/61/67 31/59/68 22/62/25
f 22/62/25 31/59/68 23/3/26
s 5
f 23/3/20 31/59/69 24/4/19
f 24/4/19 31/59/69 32/60/70
s 9
f 29/63/71 21/64/34 32/60/72
f 32/60/72 21/64/34 24/4/33
s 11
f 18/18/50 26/25/73 17/19/52
f 17/19/52 26/25/73 25/28/74
s 7
f 19/67/56 27/66/75 18/69/55
f 18/69/55 27/66/75 26/70/76
s 5
f 28/65/77 27/66/78 20/68/57
f 20/68/57 27/66/78 19/67/58
s 9
f 20/68/64 17/71/62 28/65/79
f 28/65/79 17/71/62 25/72/80
s 11
f 26/25/73 30/26/65 25/28/74
f 25/28/74 30/26/65 29/27/66
s 7
f 26/91/76 27/92/75 30/61/67
f 30/61/67 27/92/75 31/59/68
s 5
f 32/29/70 31/30/69 28/32/77
f 28/32/77 31/30/69 27/31/78
s 9
f 28/65/79 25/72/80 32/94/72
f 32/94/72 25/72/80 29/93/71
s 1
f 34/95/81 33/96/82 3/49/83
f 3/49/83 33/96/82 12/50/84
s 6
f 35/33/85 34/34/86 5/36/87
f 5/36/87 34/34/86 3/35/88
s 3
f 5/52/89 9/51/90 35/33/91
f 35/33/91 9/51/90 36/77/92
s 12
f 9/37/93 12/38/94 36/40/95
f 36/40/95 12/38/94 33/39/96
s 1
f 37/74/97 33/75/82 38/73/98
f 38/73/98 33/75/82 34/34/81
s 6
f 38/73/99 34/34/86 39/76/100
f 39/76/100 34/34/86 35/33/85
s 3
f 35/33/91 36/77/92 39/76/101
f 39/76/101 36/77/92 40/78/102
s 12
f 36/40/95 33/39/96 40/45/103
f 40/45/103 33/39/96 37/46/104
s 1
f 42/7/3 41/79/4 46/81/105
f 46/81/105 41/79/4 45/80/106
s 6
f 43/8/23 42/7/24 47/82/107
f 47/82/107 42/7/24 46/81/108
s 3
f 48/83/109 44/84/10 47/82/110
f 47/82/110 44/84/10 43/8/9
s 12
f 45/47/111 41/14/46 48/48/112
f 48/48/112 41/14/46 44/13/45
s 1
f 46/81/105 45/80/106 38/98/98
f 38/98/98 45/80/106 37/97/97
s 6
f 47/41/107 46/42/108 39/44/100
f 39/44/100 46/42/108 38/43/99
s 3
f 39/76/101 40/78/102 47/100/110
f 47/100/110 40/78/102 48/99/109
s 12
f 40/45/103 37/46/104 48/48/112
f 48/48/112 37/46/104 45/47/111
