# This file uses centimeters as units for non-parametric coordinates.

mtllib FlatBlockRightBottom.mtl
g default
v -0.500000 0.000000 0.500000
v -0.500000 0.271754 -0.500000
v 0.500000 0.000000 -0.500000
v -0.500000 0.000000 -0.500000
v 0.332200 0.271754 -0.500000
v 0.341326 0.000000 -0.500000
v 0.341326 0.000000 0.500000
v -0.500000 0.271754 0.332200
v 0.500000 0.000000 0.332200
v 0.341326 0.000000 0.332200
v -0.500000 0.000000 0.332200
v 0.500000 0.240022 0.468268
v 0.468269 0.240022 0.500000
v 0.468269 0.271754 0.468268
v 0.341326 0.240022 0.500000
v 0.341326 0.271754 0.468268
v 0.500000 0.000000 0.468268
v 0.468269 0.000000 0.500000
v 0.468269 0.271754 0.332200
v 0.500000 0.240022 0.332200
v -0.500000 0.240022 0.500000
v -0.500000 0.271754 0.468268
v 0.468269 0.271754 -0.500000
v 0.500000 0.240022 -0.500000
v 0.341326 0.271754 0.257846
v 0.404791 0.271754 0.332200
v 0.341326 0.271754 0.395664
v 0.266972 0.271754 0.332200
v 0.266972 1.000607 0.257846
v 0.341326 0.926253 0.257846
v 0.266972 0.926253 0.332200
v 0.332196 0.917879 -0.500000
v -0.500000 0.926257 0.332196
v -0.500000 0.917879 -0.500000
v -0.425653 1.000607 -0.425654
v 0.266972 1.000607 -0.425654
v -0.425653 1.000607 0.257846
vt 0.543700 0.581745
vt 0.503836 0.581745
vt 0.490689 0.581745
vt 0.453498 0.581745
vt 0.558394 0.251306
vt 0.810030 0.009951
vt 0.207016 0.652064
vt 0.203214 0.018026
vt 0.193021 0.505722
vt 0.809996 0.059113
vt 0.193021 0.984162
vt 0.802206 0.251398
vt 0.809829 0.302935
vt 0.193021 0.260444
vt 0.809627 0.595919
vt 0.498651 0.305799
vt 0.485543 0.305823
vt 0.503836 0.652064
vt 0.543700 0.652064
vt 0.485304 0.062963
vt 0.485270 0.023737
vt 0.486960 0.010997
vt 0.448696 0.022978
vt 0.453498 0.652064
vt 0.467605 0.064057
vt 0.447770 0.043303
vt 0.193021 0.762064
vt 0.193021 0.731157
vt 0.003106 0.762064
vt 0.440912 0.312699
vt 0.438428 0.343910
vt 0.231462 0.345742
vt 0.203805 0.317157
vt 0.003106 0.015838
vt 0.434426 0.547418
vt 0.003106 0.260444
vt 0.231444 0.547695
vt 0.201897 0.576284
vt 0.003106 0.984162
vt 0.462201 0.576126
vt 0.003106 0.505722
vt 0.469402 0.342145
vt 0.003106 0.731157
vt 0.447062 0.083690
vt 0.427227 0.062936
vt 0.193021 0.015838
vt 0.889281 0.546811
vt 0.445812 0.305903
vt 0.879541 0.595469
vt 0.787508 0.652064
vt 0.498439 0.062878
vt 0.449046 0.009879
vt 0.880852 0.009590
vt 0.203489 0.004923
vt 0.490689 0.652064
vt 0.497750 0.022286
vt 0.889662 0.587176
vt 0.802189 0.297886
vt 0.787508 0.581745
vt 0.889145 0.019711
vt 0.202368 0.057746
vt 0.889616 0.059168
vt 0.509983 0.287910
vt 0.517748 0.298347
vt 0.509233 0.251288
vt 0.558487 0.004820
vt 0.207016 0.581745
vt 0.509326 0.004801
vt 0.558376 0.297794
vt 0.889448 0.302990
vt 0.809659 0.549430
vt 0.802299 0.004912
vn 0.000000 -1.000000 0.000000
vn 0.000000 -1.000000 0.000000
vn 0.000000 -1.000000 0.000000
vn 0.000000 -1.000000 0.000000
vn 0.000000 -1.000000 0.000000
vn -1.000000 0.000000 0.000000
vn -1.000000 -0.000001 0.000000
vn -1.000000 -0.000000 0.000000
vn -1.000000 0.000000 -0.000000
vn -1.000000 -0.000000 0.000000
vn -0.000000 -0.000000 -1.000000
vn -0.000000 -0.000000 -1.000000
vn 0.000000 -0.000000 -1.000000
vn -0.000000 0.000000 -1.000000
vn 0.000000 -1.000000 0.000000
vn 0.000000 -1.000000 0.000000
vn 0.000000 -1.000000 0.000000
vn 0.000000 -1.000000 0.000000
vn 0.000000 -1.000000 0.000000
vn -1.000000 0.000000 0.000000
vn -1.000000 0.000000 0.000000
vn 0.000001 -0.000000 -1.000000
vn -0.000000 0.000000 -1.000000
vn -0.000000 0.000000 -1.000000
vn 0.707107 0.707106 0.000000
vn 0.707108 0.707106 0.000000
vn 0.707107 0.707106 0.000000
vn 0.707108 0.707106 0.000000
vn 0.707108 0.000000 0.707106
vn 0.707108 0.000000 0.707106
vn 0.707108 0.000000 0.707106
vn 0.707108 0.000000 0.707106
vn 0.000000 0.707106 0.707107
vn 0.000000 0.707107 0.707107
vn 0.000000 0.707107 0.707107
vn 0.000000 0.707107 0.707107
vn 0.000000 0.707107 0.707107
vn 0.000000 0.707107 0.707107
vn 0.707108 0.707106 0.000000
vn 0.707108 0.707106 0.000000
vn 0.000000 0.000000 1.000000
vn 0.000000 0.000000 1.000000
vn 0.000000 0.000000 1.000000
vn 0.000000 0.000000 1.000000
vn 0.000000 1.000000 0.000000
vn 0.000000 1.000000 0.000000
vn 0.000000 1.000000 0.000000
vn 0.000000 1.000000 0.000000
vn 0.000000 1.000000 0.000000
vn 1.000000 0.000000 0.000000
vn 1.000000 0.000000 0.000000
vn 1.000000 0.000000 0.000000
vn 1.000000 0.000000 0.000000
vn 0.000000 0.000000 1.000000
vn 0.000000 0.000000 1.000000
vn -0.000000 1.000000 0.000000
vn -0.000000 1.000000 0.000000
vn -0.000000 1.000000 0.000000
vn 1.000000 0.000000 0.000000
vn 1.000000 0.000000 0.000000
vn 0.577350 0.577350 0.577350
vn 0.577350 0.577350 0.577350
vn 0.577350 0.577350 0.577350
vn 0.000000 1.000000 0.000000
vn 0.000000 1.000000 0.000000
vn 0.000000 1.000000 0.000000
vn 0.707107 0.000000 0.707106
vn 0.707107 0.000000 0.707107
vn 0.707107 0.000000 0.707106
vn 0.707107 0.000000 0.707107
vn 0.000000 0.707107 0.707106
vn -0.000000 0.707106 0.707107
vn -0.000000 0.707107 0.707106
vn -0.000000 0.707106 0.707107
vn 0.778003 0.628049 -0.016313
vn 0.773778 0.633273 -0.015285
vn 0.715075 0.699046 -0.001744
vn 0.707107 0.707107 0.000000
vn 0.999928 0.000006 -0.012041
vn 0.999927 0.000003 -0.012044
vn 0.999928 0.000003 -0.012044
vn 0.999928 0.000000 -0.012047
vn -0.000005 0.000000 1.000000
vn -0.000002 0.000003 1.000000
vn -0.000003 0.000003 1.000000
vn 0.000000 0.000006 1.000000
vn 0.577350 0.577350 0.577351
vn 0.577350 0.577350 0.577351
vn 0.577350 0.577350 0.577351
vn -0.740731 0.671767 -0.006762
vn -0.713484 0.700670 -0.001254
vn -0.739077 0.673590 -0.006421
vn -0.707124 0.707090 0.000000
vn 0.000000 0.668427 -0.743778
vn -0.000000 0.668427 -0.743778
vn -0.000000 0.668427 -0.743778
vn -0.000000 0.668427 -0.743778
vn -1.000000 0.000000 -0.000000
vn -1.000000 0.000000 -0.000000
vn -0.000000 -0.000000 -1.000000
vn 0.000000 -0.000000 -1.000000
vn 0.000000 1.000000 0.000000
vn 0.000000 1.000000 0.000000
vn 0.000000 1.000000 0.000000
vn 0.000000 1.000000 0.000000
s 1
g flatBlockRightBottom
usemtl initialShadingGroup
f 9/69/1 17/64/2 10/5/3
f 17/64/2 18/63/4 10/5/3
f 18/63/4 7/65/5 10/5/3
s 2
f 1/6/6 21/53/7 11/10/8
f 8/62/9 11/10/8 22/60/10
f 21/53/7 22/60/10 11/10/8
s 4
f 6/71/11 4/13/12 5/47/13
f 5/47/13 4/13/12 2/70/14
s 1
f 7/65/5 1/68/15 10/5/3
f 10/5/3 1/68/15 11/66/16
f 3/58/17 9/69/1 6/12/18
f 6/12/18 9/69/1 10/5/3
f 11/66/16 4/72/19 10/5/3
f 10/5/3 4/72/19 6/12/18
s 2
f 8/62/9 2/70/20 11/10/8
f 11/10/8 2/70/20 4/13/21
s 4
f 5/47/13 23/57/22 6/71/11
f 23/57/22 24/49/23 6/71/11
f 24/49/23 3/15/24 6/71/11
s 5
f 12/56/25 20/51/26 14/21/27
f 14/21/27 20/51/26 19/20/28
s 6
f 13/55/29 18/3/30 12/18/31
f 12/18/31 18/3/30 17/2/32
s 7
f 14/21/33 16/23/34 13/22/35
f 13/22/35 16/23/34 15/52/36
f 16/23/34 22/8/37 15/52/36
f 15/52/36 22/8/37 21/54/38
s 5
f 20/51/26 24/16/39 19/20/28
f 19/20/28 24/16/39 23/17/40
s 8
f 13/55/41 15/24/42 18/3/43
f 18/3/43 15/24/42 7/4/44
s 9
f 14/21/45 19/20/46 16/23/47
f 16/23/47 19/20/46 27/26/48
f 19/20/46 26/25/49 27/26/48
s 10
f 9/1/50 20/19/51 17/2/52
f 17/2/52 20/19/51 12/18/53
s 8
f 15/24/42 21/7/54 7/4/44
f 7/4/44 21/7/54 1/67/55
s 9
f 19/20/46 23/17/56 26/25/49
f 26/25/49 23/17/56 25/44/57
f 23/17/56 5/48/58 25/44/57
s 10
f 3/59/59 24/50/60 9/1/50
f 9/1/50 24/50/60 20/19/51
s off
f 12/56/61 14/21/62 13/22/63
s 9
f 8/61/64 22/8/65 28/45/66
f 16/23/47 27/26/48 22/8/65
f 28/45/66 22/8/65 27/26/48
s 12
f 25/27/67 30/29/68 28/28/69
f 28/28/69 30/29/68 31/43/70
s 13
f 29/31/71 37/32/72 31/30/73
f 31/30/73 37/32/72 33/33/74
s 14
f 32/40/75 36/35/76 30/42/77
f 30/42/77 36/35/76 29/31/78
s 15
f 5/11/79 32/39/80 25/27/81
f 25/27/81 32/39/80 30/29/82
s 16
f 31/43/83 33/41/84 28/28/85
f 28/28/85 33/41/84 8/9/86
s 9
f 25/44/57 28/45/66 26/25/49
f 26/25/49 28/45/66 27/26/48
s off
f 29/31/87 31/30/88 30/42/89
s 17
f 34/38/90 33/33/91 35/37/92
f 35/37/92 33/33/91 37/32/93
s 18
f 36/35/94 32/40/95 35/37/96
f 35/37/96 32/40/95 34/38/97
s 2
f 33/41/98 34/36/99 8/9/9
f 8/9/9 34/36/99 2/14/20
s 4
f 2/14/14 34/36/100 5/46/13
f 5/46/13 34/36/100 32/34/101
s 19
f 35/37/102 37/32/103 36/35/104
f 36/35/104 37/32/103 29/31/105
