# This file uses centimeters as units for non-parametric coordinates.

mtllib SingleFlatBlockEdge.mtl
g default
v 0.500000 -0.000000 0.500000
v 0.500000 -0.000000 -0.500000
v -0.383415 -0.000000 -0.500000
v -0.383415 -0.000000 0.500000
v 0.376131 -0.000000 -0.500000
v 0.376131 -0.000000 0.500000
v -0.311112 0.271754 0.382563
v -0.500000 -0.000000 0.382563
v -0.383415 -0.000000 0.382563
v 0.376131 -0.000000 0.382563
v 0.500000 -0.000000 0.382563
v 0.500000 0.271754 0.382563
v 0.376131 0.271754 0.382563
v -0.311112 0.271754 -0.376227
v -0.500000 -0.000000 -0.358125
v -0.383415 -0.000000 -0.358125
v 0.376131 -0.000000 -0.358125
v 0.500000 -0.000000 -0.358125
v 0.500000 0.271754 -0.376227
v 0.376131 0.271754 -0.376227
v -0.500000 0.248439 0.476685
v -0.476685 0.248439 0.500000
v -0.476685 0.271754 0.476685
v -0.383415 0.271754 0.476685
v -0.383415 0.248439 0.500000
v -0.476685 0.271754 -0.476685
v -0.476685 0.248439 -0.500000
v -0.500000 0.248439 -0.476685
v -0.383415 0.248439 -0.500000
v -0.383415 0.271754 -0.476685
v -0.500000 -0.000000 0.476685
v -0.476685 -0.000000 0.500000
v -0.476685 0.271754 0.382563
v -0.500000 0.248439 0.382563
v -0.500000 -0.000000 -0.476685
v -0.476685 -0.000000 -0.500000
v 0.376131 0.271754 0.476685
v 0.376131 0.248439 0.500000
v 0.376131 0.248439 -0.500000
v 0.376131 0.271754 -0.476685
v 0.500000 0.248439 0.500000
v 0.500000 0.271754 0.476685
v 0.500000 0.271754 -0.476685
v 0.500000 0.248439 -0.500000
v -0.476685 0.271754 -0.358125
v -0.500000 0.248439 -0.358125
v 0.500000 0.926549 0.382560
v 0.376131 0.926545 0.382563
v 0.376131 1.000607 0.308502
v 0.500000 0.926549 -0.376222
v 0.376131 1.000607 -0.284064
v 0.376131 0.926545 -0.376227
v -0.311112 0.926545 0.382563
v -0.237050 1.000607 0.308502
v -0.237050 1.000607 -0.284064
v -0.311112 0.926545 -0.376227
v 0.425946 1.000607 0.308502
v 0.425946 1.000607 -0.284064
vt 0.286865 0.623346
vt 0.369954 0.255464
vt 0.351425 0.623346
vt 0.324099 0.623346
vt 0.314440 0.623346
vt 0.335555 0.514277
vt 0.369954 0.514277
vt 0.737631 0.008356
vt 0.012925 0.510404
vt 0.012925 0.520060
vt 0.369954 0.477987
vt 0.573948 0.623346
vt 0.069866 0.623346
vt 0.586953 0.255464
vt 0.586953 0.477987
vt 0.277149 0.536559
vt 0.040069 0.008356
vt 0.577505 0.536567
vt 0.354998 0.536561
vt 0.318711 0.536560
vt 0.317945 0.608824
vt 0.012930 0.231205
vt 0.035132 0.623346
vt 0.025472 0.623346
vt 0.314440 0.696131
vt 0.298260 0.511008
vt 0.298952 0.482845
vt 0.286865 0.696131
vt 0.324099 0.696131
vt 0.351425 0.696131
vt 0.272412 0.509737
vt 0.573948 0.696131
vt 0.049200 0.510405
vt 0.297923 0.230018
vt 0.035132 0.696131
vt 0.069866 0.696131
vt 0.298956 0.265932
vt 0.604827 0.609347
vt 0.274381 0.234371
vt 0.577503 0.609346
vt 0.049206 0.231206
vt 0.354996 0.609341
vt 0.500001 0.008356
vt 0.701341 0.008356
vt 0.277699 0.008356
vt 0.076358 0.008356
vt 0.652720 0.473278
vt 0.737631 0.200190
vt 0.860757 0.443259
vt 0.860757 0.429906
vt 0.701341 0.200190
vt 0.860757 0.248225
vt 0.500001 0.200190
vt 0.685495 0.429906
vt 0.076358 0.200190
vt 0.277699 0.200190
vt 0.685495 0.248225
vt 0.685495 0.443259
vt 0.049206 0.221550
vt 0.049200 0.520060
vt 0.308612 0.265932
vt 0.308608 0.482846
vt 0.271642 0.221554
vt 0.309303 0.230612
vt 0.298957 0.221555
vt 0.271636 0.520065
vt 0.303436 0.516980
vt 0.309641 0.511603
vt 0.049205 0.260626
vt 0.247728 0.257469
vt 0.012930 0.260625
vt 0.049201 0.482841
vt 0.249688 0.483516
vt 0.060165 0.616163
vt 0.628523 0.227892
vt 0.621440 0.221308
vt 0.628523 0.255464
vt 0.586953 0.221308
vt 0.335555 0.228385
vt 0.342133 0.221308
vt 0.335555 0.255464
vt 0.586953 0.514277
vt 0.060167 0.536554
vt 0.369954 0.221308
vt 0.610238 0.623346
vt 0.335555 0.477987
vt 0.628523 0.477987
vt 0.628523 0.514277
vt 0.025472 0.696131
vt 0.604828 0.536568
vt 0.012931 0.221550
vt 0.312644 0.616685
vt 0.033108 0.615398
vt 0.025246 0.610097
vt 0.610238 0.696131
vt 0.012926 0.482840
vt 0.282450 0.616169
vt 0.025764 0.536553
vt 0.040069 0.200190
vt 0.959931 0.200190
vt 0.889133 0.473278
vt 0.652720 0.219597
vt 0.889133 0.219597
vt 0.652720 0.429906
vt 0.889133 0.429906
vt 0.959931 0.008356
vt 0.304128 0.224640
vt 0.298951 0.520065
vn 0.000000 -1.000000 0.000000
vn 0.000000 -1.000000 0.000000
vn 0.000000 -1.000000 0.000000
vn 0.000000 -1.000000 0.000000
vn 0.000000 -1.000000 0.000000
vn 1.000000 0.000000 0.000000
vn 1.000000 0.000000 0.000000
vn 1.000000 0.000000 0.000000
vn 1.000000 0.000000 0.000000
vn 1.000000 0.000000 0.000000
vn 0.000000 -1.000000 0.000000
vn 0.000000 -1.000000 0.000000
vn 0.000000 -1.000000 0.000000
vn 0.000000 -1.000000 0.000000
vn 0.000000 -1.000000 0.000000
vn 0.000000 -1.000000 0.000000
vn 0.000000 -1.000000 0.000000
vn 0.000000 -1.000000 0.000000
vn 1.000000 0.000000 0.000000
vn 1.000000 0.000000 0.000000
vn 0.000000 -1.000000 0.000000
vn 0.000000 -1.000000 0.000000
vn 0.000000 -1.000000 0.000000
vn 1.000000 0.000000 0.000000
vn 1.000000 0.000000 0.000000
vn 1.000000 0.000000 0.000000
vn 0.000000 -1.000000 0.000000
vn 0.000000 -1.000000 0.000000
vn -0.707107 0.707106 0.000000
vn -0.707107 0.707106 0.000000
vn -0.707107 0.707106 0.000000
vn -0.707107 0.707107 0.000000
vn -0.707107 0.000000 0.707107
vn -0.707107 0.000000 0.707107
vn -0.707107 0.000000 0.707106
vn -0.707107 0.000000 0.707106
vn 0.000000 0.707106 0.707107
vn 0.000000 0.707106 0.707107
vn 0.000000 0.707107 0.707107
vn 0.000000 0.707107 0.707107
vn 0.000000 0.707106 0.707108
vn 0.000000 0.707106 0.707108
vn -0.707107 0.707106 0.000000
vn -0.707107 0.707106 0.000000
vn -0.707107 0.707106 0.000000
vn -0.707107 0.707107 0.000000
vn 0.000000 0.707106 -0.707107
vn 0.000000 0.707106 -0.707107
vn 0.000000 0.707106 -0.707108
vn 0.000000 0.707106 -0.707108
vn -0.707107 0.000000 -0.707106
vn -0.707107 0.000000 -0.707106
vn -0.707107 0.000000 -0.707107
vn -0.707106 0.000000 -0.707107
vn 0.000000 0.707107 -0.707107
vn 0.000000 0.707107 -0.707107
vn 0.000000 0.707106 0.707107
vn 0.000000 0.707107 0.707107
vn 0.000000 0.707106 -0.707107
vn 0.000000 0.707106 -0.707107
vn 0.000000 0.000000 1.000000
vn 0.000000 0.000000 1.000000
vn 0.000000 0.000000 1.000000
vn 0.000000 0.000000 1.000000
vn 0.000000 1.000000 0.000000
vn 0.000000 1.000000 0.000000
vn 0.000000 1.000000 0.000000
vn 0.000000 1.000000 0.000000
vn 0.000000 0.000000 -1.000000
vn 0.000000 0.000000 -1.000000
vn 0.000000 0.000000 -1.000000
vn 0.000000 0.000000 -1.000000
vn -1.000000 0.000000 0.000000
vn -1.000000 0.000000 0.000000
vn -1.000000 0.000000 0.000000
vn -1.000000 0.000000 0.000000
vn 0.000000 1.000000 0.000000
vn 0.000000 1.000000 0.000000
vn 0.000000 0.000000 -1.000000
vn 0.000000 0.000000 -1.000000
vn 0.000000 0.000000 1.000000
vn 0.000000 0.000000 1.000000
vn 0.000000 1.000000 0.000000
vn 0.000000 1.000000 0.000000
vn 0.000000 0.000000 -1.000000
vn 0.000000 0.000000 -1.000000
vn 0.000000 0.000000 1.000000
vn 0.000000 0.000000 1.000000
vn 0.000000 1.000000 0.000000
vn 0.000000 1.000000 -0.000000
vn -1.000000 0.000000 0.000000
vn -1.000000 0.000000 0.000000
vn 0.000000 1.000000 -0.000000
vn 0.000000 1.000000 0.000000
vn -1.000000 0.000000 0.000000
vn -1.000000 0.000000 0.000000
vn 0.000000 1.000000 0.000000
vn 0.000000 1.000000 0.000000
vn 0.000000 1.000000 -0.000000
vn 0.000000 1.000000 0.000000
vn -0.577351 0.577349 0.577350
vn -0.577351 0.577349 0.577350
vn -0.577351 0.577349 0.577350
vn -0.577351 0.577349 -0.577350
vn -0.577351 0.577349 -0.577350
vn -0.577351 0.577349 -0.577350
vn 1.000000 0.000000 0.000000
vn 1.000000 0.000000 0.000000
vn 1.000000 0.000000 0.000000
vn 1.000000 0.000000 0.000000
vn -0.000000 0.707107 0.707106
vn -0.000000 0.707107 0.707106
vn -0.000000 0.707107 0.707106
vn 0.000000 0.707107 0.707106
vn 0.000000 0.707108 0.707106
vn 0.000000 0.707108 0.707106
vn 0.000000 0.779501 -0.626401
vn -0.000000 0.779501 -0.626401
vn 0.000000 0.779501 -0.626401
vn 0.000000 0.779501 -0.626401
vn -0.707106 0.707108 0.000000
vn -0.707106 0.707107 0.000000
vn -0.707106 0.707107 0.000000
vn -0.707106 0.707107 0.000000
vn 0.000000 1.000000 0.000000
vn 0.000000 1.000000 0.000000
vn 0.000000 1.000000 0.000000
vn 0.000000 1.000000 0.000000
vn 0.000000 1.000000 0.000000
vn 0.000000 1.000000 0.000000
vn 0.000000 0.000000 1.000000
vn 0.000004 0.000001 1.000000
vn 0.000004 0.000001 1.000000
vn 0.000030 0.000006 1.000000
vn 0.000000 0.000007 -1.000000
vn 0.000001 0.000001 -1.000000
vn 0.000032 0.000001 -1.000000
vn 0.000006 0.000000 -1.000000
vn 0.000000 0.000000 1.000000
vn 0.000000 0.000000 1.000000
vn 0.000000 0.000000 -1.000000
vn 0.000000 0.000000 -1.000000
vn -1.000000 0.000000 0.000000
vn -1.000000 0.000000 0.000000
vn -1.000000 0.000000 0.000000
vn -1.000000 0.000000 0.000000
vn -0.000000 0.779501 -0.626401
vn -0.000000 0.779501 -0.626401
vn 0.707124 0.707089 0.000000
vn 0.707124 0.707089 0.000000
vn 0.707125 0.707089 0.000000
vn 0.707125 0.707089 0.000000
s 1
g singleFlatBlockEdge
usemtl initialShadingGroup
f 8/84/1 9/2/2 31/80/3
f 31/80/3 9/2/2 32/79/4
f 9/2/2 4/81/5 32/79/4
s 2
f 1/98/6 11/83/7 41/94/8
f 12/74/9 42/93/10 11/83/7
f 11/83/7 42/93/10 41/94/8
s 1
f 4/81/5 9/2/2 6/86/11
f 6/86/11 9/2/2 10/11/12
f 6/86/11 10/11/12 1/6/13
f 1/6/13 10/11/12 11/7/14
f 15/78/15 16/14/16 8/84/1
f 8/84/1 16/14/16 9/2/2
f 10/11/12 9/2/2 17/15/17
f 17/15/17 9/2/2 16/14/16
f 11/7/14 10/11/12 18/82/18
f 18/82/18 10/11/12 17/15/17
s 2
f 11/83/7 18/16/19 12/74/9
f 12/74/9 18/16/19 19/97/20
s 1
f 17/15/17 16/14/16 5/87/21
f 5/87/21 16/14/16 3/77/22
f 18/82/18 17/15/17 2/88/23
f 2/88/23 17/15/17 5/87/21
s 2
f 18/16/19 2/20/24 19/97/20
f 2/20/24 44/21/25 19/97/20
f 19/97/20 44/21/25 43/92/26
s 1
f 3/77/22 16/14/16 36/75/27
f 36/75/27 16/14/16 35/76/28
f 35/76/28 16/14/16 15/78/15
s 4
f 21/68/29 23/26/30 34/62/31
f 34/62/31 23/26/30 33/27/32
s 5
f 22/29/33 21/25/34 32/4/35
f 32/4/35 21/25/34 31/5/36
s 6
f 23/26/37 22/108/38 24/31/39
f 24/31/39 22/108/38 25/66/40
f 24/31/39 25/66/40 37/33/41
f 37/33/41 25/66/40 38/60/42
s 4
f 26/34/43 28/64/44 45/37/45
f 45/37/45 28/64/44 46/61/46
s 8
f 27/65/47 26/34/48 29/63/49
f 29/63/49 26/34/48 30/39/50
s 9
f 28/35/51 27/89/52 35/23/53
f 35/23/53 27/89/52 36/24/54
s 8
f 29/63/49 30/39/50 39/59/55
f 39/59/55 30/39/50 40/41/56
s 4
f 34/62/31 33/27/32 46/61/46
f 46/61/46 33/27/32 45/37/45
s 6
f 37/33/41 38/60/42 42/9/57
f 42/9/57 38/60/42 41/10/58
s 8
f 39/59/55 40/41/56 44/91/59
f 44/91/59 40/41/56 43/22/60
s 10
f 22/29/61 32/4/62 25/30/63
f 25/30/63 32/4/62 4/3/64
s 11
f 23/26/65 24/31/66 33/27/67
f 33/27/67 24/31/66 7/73/68
s 12
f 27/38/69 29/40/70 36/90/71
f 36/90/71 29/40/70 3/18/72
s 13
f 8/1/73 31/5/74 34/28/75
f 34/28/75 31/5/74 21/25/76
s 11
f 24/31/66 37/33/77 7/73/68
f 7/73/68 37/33/77 13/72/78
s 12
f 3/18/72 29/40/70 5/19/79
f 5/19/79 29/40/70 39/42/80
s 10
f 25/30/63 4/3/64 38/32/81
f 38/32/81 4/3/64 6/12/82
s 11
f 37/33/77 42/9/83 13/72/78
f 13/72/78 42/9/83 12/96/84
s 12
f 5/19/79 39/42/80 2/20/85
f 2/20/85 39/42/80 44/21/86
s 10
f 38/32/81 6/12/82 41/95/87
f 41/95/87 6/12/82 1/85/88
s 11
f 33/27/67 7/73/68 45/37/89
f 45/37/89 7/73/68 14/70/90
s 13
f 15/13/91 8/1/73 46/36/92
f 46/36/92 8/1/73 34/28/75
s 11
f 14/70/90 30/39/93 45/37/89
f 45/37/89 30/39/93 26/34/94
s 13
f 28/35/95 35/23/96 46/36/92
f 46/36/92 35/23/96 15/13/91
s 11
f 20/69/97 19/71/98 40/41/99
f 40/41/99 19/71/98 43/22/100
f 20/69/97 40/41/99 14/70/90
f 14/70/90 40/41/99 30/39/93
s off
f 21/68/101 22/67/102 23/26/103
f 26/34/104 27/107/105 28/64/106
s 15
f 12/8/107 19/106/108 47/48/109
f 47/48/109 19/106/108 50/100/110
s 16
f 47/101/111 57/49/112 48/105/113
f 48/105/113 57/49/112 49/50/114
f 49/50/114 54/52/115 48/105/113
f 48/105/113 54/52/115 53/103/116
s 17
f 51/54/117 52/104/118 55/57/119
f 55/57/119 52/104/118 56/102/120
s 18
f 54/52/121 55/57/122 53/103/123
f 53/103/123 55/57/122 56/102/124
s 19
f 49/50/125 57/49/126 51/54/127
f 51/54/127 57/49/126 58/58/128
f 54/52/129 49/50/125 55/57/130
f 55/57/130 49/50/125 51/54/127
s 20
f 13/44/131 12/8/132 48/51/133
f 48/51/133 12/8/132 47/48/134
s 21
f 19/17/135 20/46/136 50/99/137
f 50/99/137 20/46/136 52/55/138
s 20
f 7/43/139 13/44/131 53/53/140
f 53/53/140 13/44/131 48/51/133
s 21
f 20/46/136 14/45/141 52/55/138
f 52/55/138 14/45/141 56/56/142
s 22
f 14/45/143 7/43/144 56/56/145
f 56/56/145 7/43/144 53/53/146
s 17
f 50/47/147 52/104/118 58/58/148
f 58/58/148 52/104/118 51/54/117
s 23
f 57/49/149 47/101/150 58/58/151
f 58/58/151 47/101/150 50/47/152
