# This file uses centimeters as units for non-parametric coordinates.

mtllib WallBlock2x2.mtl
g default
v -0.776657 0.748535 -0.890564
v -0.645782 0.787422 -0.890564
v -0.645782 0.748535 -0.933762
v -0.645782 0.748535 0.924240
v -0.645782 0.787422 0.881042
v -0.776657 0.748535 0.881042
v 0.693794 0.748535 -0.933762
v 0.693794 0.787422 -0.890572
v 0.824669 0.748535 -0.890572
v 0.824669 0.748535 0.881042
v 0.693794 0.787422 0.881042
v 0.693794 0.748535 0.924232
v -0.645782 0.146772 -0.933762
v -0.776657 0.146772 -0.890564
v -0.645782 0.146772 0.924240
v -0.776657 0.146772 0.881042
v 0.693794 0.146772 -0.933762
v 0.824669 0.146772 -0.890572
v 0.824669 0.146772 0.881042
v 0.693794 0.146772 0.924232
v -0.965363 0.000037 -0.947144
v -0.817200 0.000037 -1.004608
v -0.965363 0.156750 -0.947144
v -0.817200 0.156750 -0.996613
v -0.817200 0.000037 0.995392
v -0.965363 0.000037 0.937622
v -0.817200 0.156750 0.987091
v -0.965363 0.156750 0.937622
v 1.034637 0.156750 -0.947144
v 0.865211 0.156750 -0.996613
v 1.034637 0.000037 -0.947144
v 0.865211 0.000037 -1.004608
v 0.865211 0.156750 0.987091
v 1.034637 0.156750 0.937614
v 0.865211 0.000037 0.995392
v 1.034637 0.000037 0.937614
v -0.645782 0.787422 0.881042
v -0.645782 0.787422 -0.890564
v 0.693794 0.787422 0.881042
v 0.693794 0.787422 -0.890572
v -0.395935 0.803497 0.816452
v -0.533936 0.803497 0.798599
v -0.588043 0.787422 0.834305
v -0.533936 0.806000 -0.808105
v -0.394928 0.787422 -0.825974
v -0.577133 0.787422 -0.840225
v 0.577522 0.803497 0.798592
v 0.443947 0.803497 0.816452
v 0.631638 0.787422 0.834305
v 0.577522 0.806000 -0.808105
v 0.620720 0.787422 -0.840233
v 0.442932 0.787422 -0.825974
v -0.533936 0.900978 0.798599
v -0.395935 0.900978 0.816452
v -0.479828 0.917061 0.798599
v -0.395935 0.900978 -0.825974
v -0.533936 0.900978 -0.808121
v -0.479828 0.917061 -0.808121
v 0.443947 0.900978 0.816452
v 0.577522 0.900978 0.798592
v 0.523415 0.917061 0.798592
v 0.577522 0.900978 -0.808121
v 0.443947 0.900978 -0.825974
v 0.523415 0.917061 -0.808121
v -0.386597 0.917061 0.739075
v -0.443176 0.917061 0.765854
v -0.332489 0.917061 0.756927
v -0.332489 0.999725 0.739075
v -0.386597 0.983650 0.739075
v -0.332489 0.983650 0.756927
v -0.332489 0.917061 -0.766449
v -0.443176 0.917061 -0.775375
v -0.386597 0.917061 -0.748581
v -0.332489 0.983650 -0.766449
v -0.386597 0.983650 -0.748581
v -0.332489 0.999725 -0.748581
v 0.394608 0.917061 0.756920
v 0.471199 0.917061 0.765846
v 0.448723 0.917061 0.739067
v 0.394608 0.999725 0.739067
v 0.394608 0.983650 0.756920
v 0.448723 0.983650 0.739067
v 0.448723 0.917061 -0.748589
v 0.471199 0.917061 -0.775375
v 0.394608 0.917061 -0.766449
v 0.394608 0.999725 -0.748589
v 0.448723 0.983650 -0.748589
v 0.394608 0.983650 -0.766449
vt 0.261596 0.433736
vt 0.540722 0.002577
vt 0.044509 0.249866
vt 0.027679 0.244547
vt 0.539662 0.010052
vt 0.261596 0.660618
vt 0.539796 0.239398
vt 0.366647 0.007600
vt 0.261596 0.244532
vt 0.261596 0.678268
vt 0.024305 0.017690
vt 0.040969 0.011873
vt 0.261596 0.849821
vt 0.357435 0.240310
vt 0.349433 0.003913
vt 0.232767 0.242395
vt 0.216053 0.248066
vt 0.261596 0.867471
vt 0.212491 0.008572
vt 0.229366 0.013743
vt 0.778932 0.520360
vt 0.779113 0.500010
vt 0.799182 0.500167
vt 0.022643 0.258246
vt 0.780994 0.258650
vt 0.781128 0.238285
vt 0.801218 0.238803
vt 0.000000 0.010805
vt 0.801073 0.735613
vt 0.259733 0.249466
vt 0.781571 0.758708
vt 0.780978 0.735804
vt 0.807627 0.999502
vt 0.234282 0.000000
vt 0.786683 0.022903
vt 0.787665 0.000000
vt 0.539792 0.239392
vt 0.539653 0.010052
vt 0.357452 0.240302
vt 0.366658 0.007613
vt 0.532032 0.233271
vt 0.530960 0.017501
vt 0.362599 0.233682
vt 0.375634 0.014713
vt 0.366356 0.882006
vt 0.473657 0.881988
vt 0.524655 0.228011
vt 0.506422 0.230452
vt 0.124818 0.867552
vt 0.567599 0.169516
vt 0.348407 0.879631
vt 0.017263 0.880077
vt 0.348404 0.867467
vt 0.776748 0.151724
vt 0.377007 0.229310
vt 0.696807 0.867454
vt 0.558332 0.044675
vt 0.491044 0.879607
vt 0.473784 0.867445
vt 0.782435 0.027770
vt 0.568189 0.162320
vt 0.772987 0.162037
vt 0.577604 0.007194
vt 0.780918 0.034829
vt 0.808215 0.107711
vt 0.808215 0.100414
vt 0.816743 0.100414
vt 0.035489 0.014746
vt 0.042704 0.014997
vt 0.816743 0.007298
vt 0.135637 0.014212
vt 0.042373 0.204910
vt 0.035140 0.205120
vt 0.808215 0.305526
vt 0.808215 0.298229
vt 0.042237 0.207979
vt 0.135681 0.205297
vt 0.135779 0.208373
vt 0.808215 0.007298
vt 0.808215 0.596458
vt 0.816743 0.596458
vt 0.816743 0.405940
vt 0.808215 0.405940
vt 0.808215 0.398642
vt 0.572159 0.157611
vt 0.769008 0.157334
vt 0.565412 0.040728
vt 0.776212 0.040986
vt 0.338661 0.416086
vt 0.338661 0.244532
vt 0.338661 0.849821
vt 0.338661 0.678268
vt 0.338661 0.226883
vt 0.338661 0.867471
vt 0.338661 0.660618
vt 0.338661 0.433736
vt 0.338661 0.000000
vt 0.339684 0.237110
vt 0.787564 1.000000
vt 0.807716 0.000838
vt 0.231301 0.015517
vt 0.560825 0.034311
vt 0.580904 0.014413
vt 0.569001 0.043378
vt 0.000000 0.867600
vt 0.696806 0.879938
vt 0.369496 0.234646
vt 0.381243 0.020062
vt 0.398552 0.016901
vt 0.394523 0.231407
vt 0.000005 0.880083
vt 0.367223 0.229611
vt 0.507305 0.018183
vt 0.524995 0.022135
vt 0.142644 0.880029
vt 0.124823 0.880036
vt 0.772535 0.043396
vt 0.774466 0.050608
vt 0.567121 0.050465
vt 0.583936 0.017738
vt 0.808215 0.000000
vt 0.768770 0.143281
vt 0.765818 0.150086
vt 0.575341 0.150335
vt 0.572469 0.143480
vt 0.344597 0.254343
vt 0.261596 0.000000
vt 0.359518 0.247646
vt 0.261596 0.226883
vt 0.366452 0.000000
vt 0.541002 0.246827
vt 0.557494 0.240576
vt 0.261596 0.416086
vt 0.557465 0.008172
vt 0.816743 0.000000
vt 0.799026 0.520170
vt 0.238090 0.255985
vt 0.806773 0.023421
vt 0.018864 0.004147
vt 0.801634 0.758210
vt 0.256110 0.005873
vt 0.258174 0.008099
vt 0.801062 0.258806
vt 0.003589 0.252152
vt 0.558714 0.027414
vt 0.578545 0.000000
vt 0.491043 0.867444
vt 0.783395 0.044991
vt 0.366224 0.867463
vt 0.564486 0.151998
vt 0.017259 0.867593
vt 0.773587 0.169264
vt 0.142639 0.867546
vt 0.816743 0.398642
vt 0.142890 0.205632
vt 0.142689 0.012615
vt 0.142879 0.014304
vt 0.135542 0.011134
vt 0.816743 0.305526
vt 0.816743 0.298229
vt 0.816743 0.107711
vt 0.042514 0.011931
vn -0.313437 0.000000 -0.949609
vn -0.313437 0.000000 -0.949609
vn -0.313436 0.000000 -0.949609
vn -0.313436 0.000000 -0.949609
vn -0.284825 0.958580 0.000000
vn -0.284825 0.958580 0.000000
vn -0.284824 0.958580 0.000000
vn -0.284824 0.958580 0.000000
vn 0.000000 0.743215 -0.669053
vn -0.000000 0.743213 -0.669055
vn -0.000004 0.743159 -0.669115
vn -0.000004 0.743158 -0.669116
vn -0.313436 0.000000 0.949609
vn -0.313436 0.000000 0.949609
vn -0.313437 0.000000 0.949609
vn -0.313437 0.000000 0.949609
vn 0.000000 0.743216 0.669051
vn 0.000000 0.743215 0.669053
vn 0.000004 0.743158 0.669116
vn 0.000004 0.743156 0.669118
vn 0.313386 0.000000 -0.949626
vn 0.313386 0.000000 -0.949626
vn 0.313386 0.000000 -0.949626
vn 0.313386 0.000000 -0.949626
vn 0.284825 0.958580 0.000000
vn 0.284825 0.958580 0.000000
vn 0.284824 0.958580 0.000000
vn 0.284824 0.958580 0.000000
vn 0.313386 0.000000 0.949626
vn 0.313386 0.000000 0.949626
vn 0.313386 0.000000 0.949626
vn 0.313386 0.000000 0.949626
vn -0.361195 0.047514 -0.931279
vn -0.339404 0.024055 -0.940333
vn -0.339539 0.024199 -0.940281
vn -0.316696 0.000000 -0.948527
vn -0.362829 0.049289 0.930551
vn -0.340405 0.025124 0.939943
vn -0.340257 0.024966 0.940001
vn -0.316696 0.000000 0.948527
vn 0.280277 0.000000 -0.959919
vn 0.299338 0.022513 -0.953882
vn 0.302568 0.026358 -0.952763
vn 0.320826 0.048261 -0.945908
vn 0.280316 0.000000 0.959908
vn 0.303451 0.027364 0.952454
vn 0.300096 0.023367 0.953623
vn 0.322362 0.050070 0.945291
vn -1.000000 0.000000 0.000000
vn -1.000000 0.000000 0.000000
vn -1.000000 0.000000 0.000000
vn -1.000000 0.000000 0.000000
vn 1.000000 0.000000 0.000000
vn 1.000000 0.000000 0.000000
vn 1.000000 0.000000 0.000000
vn 1.000000 0.000000 0.000000
vn 0.000000 0.052894 0.998600
vn 0.000000 0.052894 0.998600
vn 0.000000 0.052894 0.998600
vn 0.000000 0.052894 0.998600
vn 0.000000 0.050954 -0.998701
vn 0.000000 0.050954 -0.998701
vn 0.000000 0.050954 -0.998701
vn 0.000000 0.050954 -0.998701
vn 0.000000 0.000000 -1.000000
vn 0.000000 0.000000 -1.000000
vn 0.000000 0.000000 -1.000000
vn 0.000000 0.000000 -1.000000
vn 1.000000 0.000000 0.000000
vn 1.000000 0.000000 0.000000
vn 1.000000 0.000000 0.000000
vn 1.000000 0.000000 0.000000
vn 0.000006 0.000000 1.000000
vn 0.000006 0.000000 1.000000
vn 0.000006 0.000000 1.000000
vn 0.000006 0.000000 1.000000
vn -1.000000 0.000000 0.000000
vn -1.000000 0.000000 0.000000
vn -1.000000 0.000000 0.000000
vn -1.000000 0.000000 0.000000
vn -0.215637 0.725731 -0.653312
vn -0.215637 0.725730 -0.653312
vn -0.215637 0.725731 -0.653312
vn -0.215638 0.725730 0.653311
vn -0.215638 0.725730 0.653311
vn -0.215638 0.725730 0.653311
vn 0.215621 0.725676 -0.653378
vn 0.215621 0.725676 -0.653378
vn 0.215621 0.725676 -0.653378
vn 0.215622 0.725675 0.653378
vn 0.215622 0.725675 0.653378
vn 0.215622 0.725675 0.653378
vn 0.027468 0.996153 0.083220
vn 0.027660 0.996153 0.083146
vn 0.027578 0.996153 0.083178
vn 0.027750 0.996154 0.083112
vn 0.027468 0.996153 -0.083220
vn 0.027578 0.996153 -0.083178
vn 0.027660 0.996153 -0.083146
vn 0.027750 0.996154 -0.083112
vn -0.027466 0.996152 0.083227
vn -0.026251 0.996146 0.083690
vn -0.025437 0.996141 0.084001
vn -0.024618 0.996135 0.084314
vn -0.027464 0.996153 -0.083221
vn -0.025438 0.996141 -0.083995
vn -0.026251 0.996147 -0.083684
vn -0.024620 0.996136 -0.084307
vn 0.052799 0.998605 0.000000
vn 0.052799 0.998605 0.000000
vn 0.052799 0.998605 0.000000
vn 0.052799 0.998605 0.000000
vn -0.047465 0.998873 0.000000
vn -0.047465 0.998873 0.000000
vn -0.047465 0.998873 0.000000
vn -0.047465 0.998873 0.000000
vn -0.000001 0.987636 -0.156762
vn -0.000000 0.987633 -0.156783
vn -0.000001 0.987636 -0.156765
vn 0.000000 0.987633 -0.156783
vn 0.000000 0.987633 0.156783
vn 0.000000 0.987633 0.156783
vn 0.000000 0.987633 0.156783
vn 0.000000 0.987633 0.156783
vn 0.000000 0.000000 0.000000
vn 0.000000 0.000000 0.000000
vn 0.000000 0.000000 0.000000
vn 0.000000 0.000000 0.000000
vn 0.000000 0.000000 0.000000
vn 0.000000 0.000000 0.000000
vn 0.000000 0.000000 0.000000
vn 0.000000 0.000000 0.000000
vn 0.000000 0.000000 0.000000
vn 0.000000 0.000000 0.000000
vn 0.000000 0.000000 0.000000
vn 0.000000 0.000000 0.000000
vn 0.000000 0.000000 0.000000
vn 0.000000 0.000000 0.000000
vn 0.000000 0.000000 0.000000
vn 0.000000 0.000000 0.000000
vn 0.000000 1.000000 0.000000
vn 0.000000 1.000000 0.000000
vn 0.000000 1.000000 0.000000
vn 0.000000 1.000000 0.000000
vn 0.000000 1.000000 0.000000
vn 0.000000 1.000000 -0.000000
vn 0.000000 1.000000 -0.000002
vn 0.000000 1.000000 -0.000002
vn 0.000000 1.000000 0.000000
vn 0.000000 1.000000 0.000000
vn 0.000000 1.000000 0.000000
vn 0.000000 1.000000 0.000000
vn 0.000000 1.000000 0.000000
vn 0.000000 1.000000 -0.000000
vn 0.000000 1.000000 -0.000000
vn 0.000000 1.000000 -0.000001
vn 0.000000 1.000000 0.000000
vn 0.000000 1.000000 0.000000
vn -0.128299 0.000000 0.991736
vn -0.128299 0.000000 0.991736
vn -0.128299 0.000000 0.991736
vn -0.128299 0.000000 0.991736
vn -0.285921 0.958251 -0.001863
vn -0.287133 0.957889 -0.001827
vn -0.391315 0.920256 0.001288
vn -0.395972 0.918262 0.001430
vn 0.000000 0.743136 0.669140
vn 0.000000 0.743137 0.669139
vn 0.000000 0.743136 0.669140
vn 0.000000 0.743137 0.669139
vn -0.127641 -0.001132 -0.991820
vn -0.127986 -0.000621 -0.991776
vn -0.127862 -0.000804 -0.991792
vn -0.128298 -0.000159 -0.991736
vn 0.132531 0.000000 0.991179
vn 0.132531 0.000000 0.991179
vn 0.132531 0.000000 0.991179
vn 0.132530 0.000000 0.991179
vn 0.285885 0.958262 -0.001864
vn 0.391312 0.920257 0.001288
vn 0.287097 0.957900 -0.001828
vn 0.395971 0.918262 0.001430
vn 0.131765 -0.001177 -0.991280
vn 0.132010 -0.000825 -0.991248
vn 0.132130 -0.000653 -0.991232
vn 0.132474 -0.000159 -0.991186
vn -0.284917 0.958552 0.000000
vn -0.284917 0.958552 0.000000
vn -0.284917 0.958552 0.000000
vn -0.284917 0.958552 0.000000
vn 0.000005 0.742991 0.669301
vn 0.000005 0.742992 0.669300
vn 0.000001 0.743106 0.669174
vn 0.000000 0.743119 0.669159
vn 0.000000 0.742979 -0.669314
vn 0.000000 0.742976 -0.669318
vn 0.000000 0.742979 -0.669314
vn 0.000000 0.742976 -0.669318
vn 0.284917 0.958552 0.000000
vn 0.284917 0.958552 0.000000
vn 0.284916 0.958552 0.000000
vn 0.284916 0.958552 0.000000
vn -0.313334 0.000000 0.949643
vn -0.313334 0.000000 0.949643
vn -0.313333 0.000000 0.949643
vn -0.313332 0.000000 0.949643
vn 0.000007 0.743135 0.669142
vn 0.000007 0.743135 0.669142
vn 0.000007 0.743138 0.669138
vn 0.000007 0.743138 0.669138
vn -0.284792 0.958589 0.000000
vn -0.284792 0.958589 0.000000
vn -0.284792 0.958589 0.000000
vn -0.284792 0.958589 0.000000
vn -0.313575 0.000000 -0.949563
vn -0.313575 0.000000 -0.949563
vn -0.313575 0.000000 -0.949563
vn -0.313575 0.000000 -0.949563
vn 0.000000 0.743422 -0.668823
vn -0.000000 0.743419 -0.668826
vn -0.000007 0.743280 -0.668981
vn -0.000007 0.743277 -0.668984
vn 0.313295 0.000000 0.949656
vn 0.313294 0.000000 0.949656
vn 0.313294 0.000000 0.949656
vn 0.313293 0.000000 0.949657
vn 0.284756 0.958600 0.000000
vn 0.284756 0.958600 0.000000
vn 0.284755 0.958600 0.000000
vn 0.284755 0.958600 0.000000
vn 0.313415 0.000000 -0.949616
vn 0.313414 0.000000 -0.949617
vn 0.313414 0.000000 -0.949617
vn 0.313413 0.000000 -0.949617
vn 0.000000 1.000000 0.000000
vn 0.000000 1.000000 0.000000
vn 0.000000 1.000000 0.000000
vn 0.000000 1.000000 0.000000
vn 0.000000 0.000000 -1.000000
vn 0.000000 0.000000 -1.000000
vn 0.000000 0.000000 -1.000000
vn 0.000000 0.000000 -1.000000
vn 0.000000 1.000000 0.000000
vn 0.000000 1.000000 0.000000
vn 0.000000 1.000000 0.000000
vn 0.000000 1.000000 0.000000
vn 0.000000 1.000000 0.000000
vn 0.000000 1.000000 0.000000
vn 0.000000 1.000000 0.000000
vn 0.000000 1.000000 0.000000
vn 0.000000 1.000000 0.000010
vn 0.000000 1.000000 0.000000
vn 0.000000 1.000000 0.000000
vn 0.000000 1.000000 -0.000000
vn 0.000000 1.000000 0.000000
vn 0.000000 1.000000 0.000000
vn 0.000000 1.000000 -0.000009
vn 0.000000 1.000000 0.000000
vn -1.000000 0.000000 0.000000
vn -1.000000 0.000000 0.000000
vn -1.000000 0.000000 0.000000
vn -1.000000 0.000000 0.000000
vn 0.000010 0.000000 1.000000
vn 0.000010 0.000000 1.000000
vn 0.000010 0.000000 1.000000
vn 0.000010 0.000000 1.000000
vn 1.000000 0.000000 0.000000
vn 1.000000 0.000000 0.000000
vn 1.000000 0.000000 0.000000
vn 1.000000 0.000000 0.000000
vn 0.000000 0.000000 -1.000000
vn 0.000000 0.000000 -1.000000
vn 0.000000 0.000000 -1.000000
vn 0.000000 0.000000 -1.000000
vn -1.000000 0.000001 0.000000
vn -1.000000 0.000001 0.000000
vn -1.000000 0.000000 0.000000
vn -1.000000 0.000000 0.000000
vn 0.000000 0.000000 1.000000
vn 0.000000 0.000000 1.000000
vn 0.000000 0.000000 1.000000
vn 0.000000 0.000000 1.000000
vn 1.000000 0.000000 0.000000
vn 1.000000 -0.000000 0.000000
vn 1.000000 -0.000000 0.000000
vn 1.000000 -0.000000 0.000000
vn -0.045527 0.934922 0.351921
vn -0.045527 0.934922 0.351921
vn -0.045527 0.934922 0.351921
vn 0.042422 0.839074 -0.542361
vn 0.042422 0.839074 -0.542361
vn 0.042422 0.839074 -0.542361
vn 0.046819 0.935523 0.350150
vn 0.046819 0.935523 0.350150
vn 0.046819 0.935523 0.350150
vn -0.043581 0.838357 -0.543377
vn -0.043581 0.838357 -0.543377
vn -0.043581 0.838357 -0.543377
vn -0.117793 0.396296 0.910535
vn -0.117793 0.396296 0.910535
vn -0.117793 0.396296 0.910535
vn -0.117793 0.396295 -0.910536
vn -0.117793 0.396295 -0.910536
vn -0.117793 0.396295 -0.910536
vn 0.121044 0.407232 0.905268
vn 0.121044 0.407232 0.905268
vn 0.121044 0.407232 0.905268
vn 0.121001 0.407088 -0.905339
vn 0.121001 0.407088 -0.905339
vn 0.121001 0.407088 -0.905339
vn -0.215590 0.725661 0.653405
vn -0.215590 0.725661 0.653405
vn -0.215590 0.725661 0.653405
vn -0.215669 0.725925 -0.653085
vn -0.215669 0.725925 -0.653085
vn -0.215669 0.725925 -0.653085
vn 0.215560 0.725664 0.653411
vn 0.215560 0.725664 0.653411
vn 0.215560 0.725664 0.653411
vn 0.215600 0.725796 -0.653251
vn 0.215600 0.725796 -0.653251
vn 0.215600 0.725796 -0.653251
s 1
g wallBlock2x2
usemtl initialShadingGroup
f 1/1/1 3/133/2 14/96/3
f 14/96/3 3/133/2 13/89/4
s 2
f 2/5/5 1/134/6 5/7/7
f 5/7/7 1/134/6 6/132/8
s 3
f 3/2/9 2/5/10 7/130/11
f 7/130/11 2/5/10 8/8/12
s 4
f 4/10/13 6/6/14 15/92/15
f 15/92/15 6/6/14 16/95/16
s 5
f 5/7/17 4/131/18 11/14/19
f 11/14/19 4/131/18 12/128/20
s 6
f 7/9/21 9/129/22 17/90/23
f 17/90/23 9/129/22 18/93/24
s 7
f 9/15/25 8/8/26 10/98/27
f 10/98/27 8/8/26 11/14/28
s 8
f 10/18/29 12/13/30 19/94/31
f 19/94/31 12/13/30 20/91/32
s 9
f 22/21/33 21/22/34 24/136/35
f 24/136/35 21/22/34 23/23/36
s 10
f 25/26/37 27/27/38 26/25/39
f 26/25/39 27/27/38 28/143/40
s 11
f 29/140/41 31/31/42 30/29/43
f 30/29/43 31/31/42 32/32/44
s 12
f 34/100/45 33/138/46 36/36/47
f 36/36/47 33/138/46 35/35/48
s 13
f 23/23/49 21/22/50 28/143/51
f 28/143/51 21/22/50 26/25/52
s 14
f 29/140/53 34/33/54 31/31/55
f 31/31/55 34/33/54 36/99/56
s 15
f 27/27/57 25/26/58 33/138/59
f 33/138/59 25/26/58 35/35/60
s 16
f 30/29/61 32/32/62 24/136/63
f 24/136/63 32/32/62 22/21/64
s 17
f 17/90/65 13/89/66 7/9/67
f 7/9/67 13/89/66 3/133/68
s 18
f 9/129/69 10/127/70 18/93/71
f 18/93/71 10/127/70 19/97/72
s 19
f 15/92/73 20/91/74 4/10/75
f 4/10/75 20/91/74 12/13/76
s 20
f 14/96/77 16/95/78 1/1/79
f 1/1/79 16/95/78 6/6/80
s off
f 1/134/81 2/5/82 3/2/83
f 4/131/84 5/7/85 6/132/86
f 7/130/87 8/8/88 9/15/89
f 10/126/90 11/14/91 12/128/92
s 21
f 13/3/93 24/24/94 14/4/95
f 14/4/95 24/24/94 23/144/96
s 22
f 15/12/97 16/11/98 27/139/99
f 27/139/99 16/11/98 28/28/100
s 23
f 17/17/101 18/16/102 30/137/103
f 30/137/103 18/16/102 29/30/104
s 24
f 20/19/105 33/34/106 19/20/107
f 19/20/107 33/34/106 34/141/108
s 25
f 16/11/109 14/4/110 28/28/111
f 28/28/111 14/4/110 23/144/112
s 26
f 18/16/113 19/101/114 29/30/115
f 29/30/115 19/101/114 34/142/116
s 27
f 20/19/117 15/12/118 33/34/119
f 33/34/119 15/12/118 27/139/120
s 28
f 13/3/121 17/17/122 24/24/123
f 24/24/123 17/17/122 30/137/124
s 29
f 38/38/125 2/5/126 37/37/127
f 2/5/126 5/7/128 37/37/127
s 30
f 37/37/129 5/7/130 39/39/131
f 5/7/130 11/14/132 39/39/131
s 31
f 39/39/133 11/14/134 40/40/135
f 11/14/134 8/8/136 40/40/135
s 32
f 40/40/137 8/8/138 38/38/139
f 8/8/138 2/5/140 38/38/139
s 33
f 38/38/141 37/37/142 46/42/143
f 46/42/143 37/37/142 43/41/144
s 34
f 39/39/145 49/107/146 37/37/147
f 37/37/147 49/107/146 43/41/148
s 35
f 40/40/149 51/44/150 39/39/151
f 39/39/151 51/44/150 49/43/152
s 36
f 40/40/153 38/38/154 51/44/155
f 51/44/155 38/38/154 52/109/156
f 52/109/156 38/38/154 45/113/157
f 38/38/154 46/42/158 45/113/157
s 37
f 42/115/159 41/116/160 53/153/161
f 53/153/161 41/116/160 54/49/162
s 38
f 43/41/163 42/47/164 46/42/165
f 46/42/165 42/47/164 44/114/166
s 39
f 43/41/167 49/107/168 41/48/169
f 41/48/169 49/107/168 48/110/170
s 40
f 45/45/171 44/51/172 56/149/173
f 56/149/173 44/51/172 57/53/174
s 41
f 48/52/175 47/111/176 59/151/177
f 59/151/177 47/111/176 60/105/178
s 42
f 49/43/179 51/44/180 47/112/181
f 47/112/181 51/44/180 50/108/182
s 43
f 52/46/183 63/59/184 50/58/185
f 50/58/185 63/59/184 62/147/186
s 44
f 53/50/187 55/61/188 57/152/189
f 57/152/189 55/61/188 58/62/190
s 45
f 55/61/191 54/150/192 61/102/193
f 61/102/193 54/150/192 59/57/194
s 46
f 58/62/195 64/64/196 56/54/197
f 56/54/197 64/64/196 63/148/198
s 47
f 61/63/199 60/146/200 64/64/201
f 64/64/201 60/146/200 62/60/202
s 48
f 65/65/203 67/66/204 69/161/205
f 69/161/205 67/66/204 70/67/206
s 49
f 68/69/207 70/162/208 80/71/209
f 80/71/209 70/162/208 81/158/210
s 50
f 69/68/211 68/69/212 75/73/213
f 75/73/213 68/69/212 76/72/214
s 51
f 71/74/215 73/75/216 74/159/217
f 74/159/217 73/75/216 75/160/218
s 52
f 74/76/219 76/72/220 88/78/221
f 88/78/221 76/72/220 86/77/222
s 53
f 77/79/223 79/121/224 81/70/225
f 81/70/225 79/121/224 82/135/226
s 54
f 80/71/227 82/157/228 86/77/229
f 86/77/229 82/157/228 87/155/230
s 55
f 83/83/231 85/84/232 87/82/233
f 87/82/233 85/84/232 88/154/234
s 56
f 76/72/235 68/69/236 86/77/237
f 86/77/237 68/69/236 80/71/238
s 57
f 63/59/239 52/46/240 56/149/241
f 56/149/241 52/46/240 45/45/242
s 58
f 58/62/243 55/61/244 72/86/245
f 55/61/244 66/85/246 72/86/245
f 66/85/246 65/124/247 72/86/245
f 65/124/247 73/123/248 72/86/245
f 61/102/249 78/87/250 55/61/244
f 78/87/250 77/119/251 55/61/244
f 77/119/251 67/125/252 55/61/244
f 55/61/244 67/125/252 66/85/246
f 61/63/249 64/64/253 78/103/250
f 78/103/250 64/64/253 79/120/254
f 64/64/253 84/88/255 79/120/254
f 84/88/255 83/117/256 79/120/254
f 64/64/253 58/62/243 84/88/255
f 84/88/255 58/62/243 85/118/257
f 85/118/257 58/62/243 71/122/258
f 58/62/243 72/86/245 71/122/258
s 60
f 75/160/259 73/75/260 69/161/261
f 69/161/261 73/75/260 65/65/262
s 61
f 70/67/263 67/66/264 81/70/265
f 81/70/265 67/66/264 77/79/266
s 62
f 82/81/267 79/80/268 87/82/269
f 87/82/269 79/80/268 83/83/270
s 63
f 88/154/271 85/84/272 74/159/273
f 74/159/273 85/84/272 71/74/274
s 64
f 57/53/275 44/51/276 53/153/277
f 53/153/277 44/51/276 42/115/278
s 65
f 54/49/279 41/116/280 59/151/281
f 59/151/281 41/116/280 48/52/282
s 66
f 60/56/283 47/106/284 62/147/285
f 62/147/285 47/106/284 50/58/286
s off
f 41/48/287 42/47/288 43/41/289
f 44/114/290 45/113/291 46/42/292
f 47/55/293 48/110/294 49/107/295
f 50/108/296 51/44/297 52/109/298
f 53/50/299 54/150/300 55/61/301
f 56/54/302 57/152/303 58/62/304
f 59/57/305 60/145/306 61/102/307
f 62/60/308 63/148/309 64/64/310
s 58
f 65/124/247 66/85/246 67/125/252
s off
f 68/69/311 69/68/312 70/162/313
s 58
f 71/122/258 72/86/245 73/123/248
s off
f 74/76/314 75/73/315 76/72/316
s 58
f 77/119/251 78/87/250 79/104/254
s off
f 80/71/317 81/158/318 82/156/319
s 58
f 83/117/256 84/88/255 85/118/257
s off
f 86/77/320 87/155/321 88/78/322
